<svg width="216" height="114" viewBox="0 0 216 114" fill="none" xmlns="http://www.w3.org/2000/svg">
<path d="M82.2129 68.7628C82.2129 59.5949 87.9551 51.4088 96.5754 48.2877L96.0801 97.5659C88.4215 97.5659 82.2129 91.3573 82.2129 83.6986V68.7628Z" fill="#004B75"/>
<path d="M27 7H41V41H27V7Z" fill="#004B75"/>
<path fill-rule="evenodd" clip-rule="evenodd" d="M23 7.63825C9.19991 16.1379 0 31.386 0 48.7829C0 75.4515 21.6191 97.0706 48.2877 97.0706C74.9562 97.0706 96.5753 75.4515 96.5753 48.7829C96.5753 22.1144 74.9562 0.4953 48.2877 0.4953C47.1827 0.4953 46.0864 0.53241 45 0.60546V14.99C46.0819 14.8861 47.1786 14.8329 48.2877 14.8329C67.0378 14.8329 82.2377 30.0329 82.2377 48.7829C82.2377 67.533 67.0378 82.733 48.2877 82.733C29.5376 82.733 14.3376 67.533 14.3376 48.7829C14.3376 40.0782 17.6136 32.1387 23 26.1299V7.63825ZM27 22.3345C31.0156 19.0983 35.7835 16.758 41 15.617V1.04163C36.0463 1.79152 31.3396 3.294 27 5.42885V22.3345Z" fill="#004B75"/>
<path fill-rule="evenodd" clip-rule="evenodd" d="M40 27C32.8203 27 27 32.8203 27 40V58C27 65.1797 32.8203 71 40 71V47C40 43.6863 42.6863 41 46 41H50C53.3137 41 56 43.6863 56 47V71H57C64.1797 71 70 65.1797 70 58V40C70 32.8203 64.1797 27 57 27H40Z" fill="#004B75"/>
<path d="M118.867 41.5882C121.267 41.5882 123.193 42.3868 124.644 43.984C126.094 45.5562 126.819 47.7273 126.819 50.4973V62.7005H120.442V51.3583C120.442 49.9608 120.08 48.8752 119.354 48.1016C118.629 47.328 117.654 46.9412 116.428 46.9412C115.203 46.9412 114.228 47.328 113.502 48.1016C112.777 48.8752 112.415 49.9608 112.415 51.3583V62.7005H106V35H112.415V44.6203C113.065 43.697 113.953 42.9608 115.078 42.4118C116.203 41.8627 117.466 41.5882 118.867 41.5882Z" fill="#004B75"/>
<path d="M151.008 51.9198C151.008 52.5187 150.971 53.1426 150.896 53.7914H136.378C136.478 55.0891 136.891 56.0873 137.616 56.7861C138.367 57.4599 139.279 57.7968 140.355 57.7968C141.955 57.7968 143.068 57.123 143.693 55.7754H150.52C150.17 57.1479 149.533 58.3832 148.607 59.4813C147.707 60.5793 146.569 61.4403 145.194 62.0642C143.818 62.6881 142.28 63 140.58 63C138.529 63 136.703 62.5633 135.103 61.6898C133.502 60.8164 132.252 59.5686 131.352 57.9465C130.451 56.3244 130.001 54.4278 130.001 52.2567C130.001 50.0856 130.439 48.1889 131.314 46.5668C132.215 44.9447 133.465 43.697 135.065 42.8235C136.666 41.9501 138.504 41.5134 140.58 41.5134C142.605 41.5134 144.406 41.9376 145.981 42.7861C147.557 43.6346 148.782 44.8449 149.658 46.4171C150.558 47.9893 151.008 49.8235 151.008 51.9198ZM144.443 50.2353C144.443 49.1373 144.068 48.2638 143.318 47.615C142.568 46.9661 141.63 46.6417 140.505 46.6417C139.429 46.6417 138.517 46.9537 137.766 47.5775C137.041 48.2014 136.591 49.0873 136.416 50.2353H144.443Z" fill="#004B75"/>
<path d="M160.807 35V62.7005H154.392V35H160.807Z" fill="#004B75"/>
<path d="M171.87 35V62.7005H165.455V35H171.87Z" fill="#004B75"/>
<path d="M186.046 63C183.996 63 182.145 62.5633 180.495 61.6898C178.869 60.8164 177.581 59.5686 176.631 57.9465C175.706 56.3244 175.243 54.4278 175.243 52.2567C175.243 50.1105 175.718 48.2264 176.668 46.6043C177.619 44.9572 178.919 43.697 180.57 42.8235C182.22 41.9501 184.071 41.5134 186.121 41.5134C188.172 41.5134 190.023 41.9501 191.673 42.8235C193.324 43.697 194.624 44.9572 195.575 46.6043C196.525 48.2264 197 50.1105 197 52.2567C197 54.4029 196.512 56.2995 195.537 57.9465C194.587 59.5686 193.274 60.8164 191.598 61.6898C189.948 62.5633 188.097 63 186.046 63ZM186.046 57.4599C187.272 57.4599 188.31 57.0107 189.16 56.1123C190.035 55.2139 190.473 53.9287 190.473 52.2567C190.473 50.5847 190.048 49.2995 189.197 48.4011C188.372 47.5027 187.347 47.0535 186.121 47.0535C184.871 47.0535 183.833 47.5027 183.008 48.4011C182.183 49.2745 181.77 50.5597 181.77 52.2567C181.77 53.9287 182.17 55.2139 182.97 56.1123C183.796 57.0107 184.821 57.4599 186.046 57.4599Z" fill="#004B75"/>
<path d="M105 86.0909C105 83.9192 105.399 82.0126 106.197 80.3712C107.02 78.7298 108.13 77.4672 109.527 76.5833C110.924 75.6995 112.482 75.2576 114.203 75.2576C115.675 75.2576 116.96 75.5606 118.057 76.1667C119.179 76.7727 120.04 77.5682 120.638 78.553V75.5606H127.036V96.697H120.638V93.7045C120.015 94.6894 119.142 95.4848 118.02 96.0909C116.922 96.697 115.638 97 114.166 97C112.47 97 110.924 96.5581 109.527 95.6742C108.13 94.7652 107.02 93.4899 106.197 91.8485C105.399 90.1818 105 88.2626 105 86.0909ZM120.638 86.1288C120.638 84.5126 120.189 83.2374 119.292 82.303C118.419 81.3687 117.346 80.9015 116.074 80.9015C114.802 80.9015 113.717 81.3687 112.819 82.303C111.946 83.2121 111.51 84.4747 111.51 86.0909C111.51 87.7071 111.946 88.9949 112.819 89.9545C113.717 90.8889 114.802 91.3561 116.074 91.3561C117.346 91.3561 118.419 90.8889 119.292 89.9545C120.189 89.0202 120.638 87.7449 120.638 86.1288Z" fill="#004B75"/>
<path d="M138.062 68.6667V96.697H131.664V68.6667H138.062Z" fill="#004B75"/>
<path d="M153.173 80.9394H149.732V96.697H143.334V80.9394H141.014V75.5606H143.334V74.9545C143.334 72.3535 144.07 70.3838 145.541 69.0455C147.013 67.6818 149.17 67 152.014 67C152.488 67 152.837 67.0126 153.061 67.0379V72.5303C151.839 72.4545 150.979 72.6313 150.48 73.0606C149.981 73.4899 149.732 74.2601 149.732 75.3712V75.5606H153.173V80.9394Z" fill="#004B75"/>
<path d="M162.577 79.0833C163.325 77.9217 164.261 77.0126 165.383 76.3561C166.505 75.6742 167.753 75.3333 169.124 75.3333V82.1894H167.366C165.77 82.1894 164.572 82.5429 163.774 83.25C162.976 83.9318 162.577 85.1439 162.577 86.8864V96.697H156.18V75.5606H162.577V79.0833Z" fill="#004B75"/>
<path d="M191.861 85.7879C191.861 86.3939 191.824 87.0253 191.749 87.6818H177.27C177.37 88.995 177.782 90.005 178.505 90.7121C179.253 91.3939 180.163 91.7348 181.236 91.7348C182.832 91.7348 183.942 91.053 184.566 89.6894H191.375C191.026 91.0783 190.39 92.3283 189.467 93.4394C188.569 94.5505 187.434 95.4217 186.062 96.053C184.69 96.6843 183.156 97 181.46 97C179.415 97 177.595 96.5581 175.998 95.6742C174.402 94.7904 173.155 93.5278 172.257 91.8864C171.359 90.2449 170.91 88.3258 170.91 86.1288C170.91 83.9318 171.347 82.0126 172.22 80.3712C173.117 78.7298 174.365 77.4672 175.961 76.5833C177.557 75.6995 179.39 75.2576 181.46 75.2576C183.481 75.2576 185.277 75.6869 186.848 76.5455C188.419 77.404 189.641 78.6288 190.514 80.2197C191.412 81.8106 191.861 83.6667 191.861 85.7879ZM185.314 84.0833C185.314 82.9722 184.94 82.0884 184.192 81.4318C183.443 80.7753 182.508 80.447 181.386 80.447C180.313 80.447 179.403 80.7626 178.655 81.3939C177.931 82.0253 177.482 82.9217 177.308 84.0833H185.314Z" fill="#004B75"/>
<path d="M193.964 86.0909C193.964 83.9192 194.363 82.0126 195.161 80.3712C195.984 78.7298 197.094 77.4672 198.491 76.5833C199.888 75.6995 201.447 75.2576 203.168 75.2576C204.539 75.2576 205.786 75.548 206.909 76.1288C208.056 76.7096 208.954 77.4924 209.602 78.4773V68.6667H216V96.697H209.602V93.6667C209.004 94.6768 208.143 95.4848 207.021 96.0909C205.924 96.697 204.639 97 203.168 97C201.447 97 199.888 96.5581 198.491 95.6742C197.094 94.7652 195.984 93.4899 195.161 91.8485C194.363 90.1818 193.964 88.2626 193.964 86.0909ZM209.602 86.1288C209.602 84.5126 209.154 83.2374 208.256 82.303C207.383 81.3687 206.31 80.9015 205.038 80.9015C203.766 80.9015 202.681 81.3687 201.783 82.303C200.91 83.2121 200.474 84.4747 200.474 86.0909C200.474 87.7071 200.91 88.9949 201.783 89.9545C202.681 90.8889 203.766 91.3561 205.038 91.3561C206.31 91.3561 207.383 90.8889 208.256 89.9545C209.154 89.0202 209.602 87.7449 209.602 86.1288Z" fill="#004B75"/>
<path d="M12.0578 99.433L11.2151 98.6723L13.8834 95.9743C14.0987 95.7565 14.2867 95.5408 14.4472 95.327C14.6104 95.1104 14.7094 94.916 14.7439 94.7438C14.7867 94.5576 14.7658 94.3728 14.6813 94.1895C14.5996 94.0033 14.4467 93.8091 14.2225 93.6068C13.9924 93.3991 13.6987 93.2357 13.3414 93.1166C12.9841 92.9975 12.6079 92.9175 12.2128 92.8767L8.71382 96.4146L7.87109 95.6539L14.3991 89.0532L15.2418 89.8138L12.8798 92.2021C13.347 92.2331 13.7783 92.3173 14.1739 92.4549C14.5695 92.5925 14.9152 92.7948 15.2111 93.0619C15.752 93.5501 16.0119 94.0765 15.991 94.641C15.97 95.2055 15.6728 95.7776 15.0995 96.3574L12.0578 99.433Z" fill="#004B75"/>
<path d="M20.4732 101.099L16.2299 98.4415C16.001 98.7774 15.8543 99.1044 15.7898 99.4223C15.7274 99.7369 15.7346 100.032 15.8113 100.308C15.8834 100.577 16.0148 100.827 16.2055 101.058C16.3996 101.291 16.6445 101.5 16.9401 101.685C17.332 101.931 17.7755 102.104 18.2708 102.205C18.7718 102.304 19.1554 102.335 19.4216 102.297L19.4731 102.329L18.7898 103.332C18.3743 103.258 17.9665 103.159 17.5662 103.034C17.1659 102.909 16.7784 102.729 16.4038 102.494C15.4482 101.896 14.869 101.184 14.6661 100.359C14.4655 99.5306 14.6729 98.6646 15.2885 97.7611C15.8974 96.8673 16.6368 96.3183 17.5068 96.1139C18.3801 95.9116 19.2362 96.0731 20.0749 96.5984C20.8517 97.0849 21.3031 97.6748 21.4291 98.368C21.5585 99.0634 21.3533 99.8073 20.8132 100.6L20.4732 101.099ZM20.0097 99.8035C20.3352 99.3186 20.4607 98.8644 20.3864 98.4409C20.3154 98.0196 20.0222 97.6474 19.5066 97.3245C18.9876 96.9994 18.4745 96.8852 17.9674 96.9817C17.4637 97.0804 17.0445 97.3322 16.71 97.7369L20.0097 99.8035Z" fill="#004B75"/>
<path d="M25.0922 106.669L24.048 106.204L24.3517 105.573C24.2297 105.591 24.0623 105.62 23.8495 105.658C23.6421 105.695 23.4486 105.712 23.2691 105.709C23.055 105.713 22.8216 105.69 22.569 105.642C22.3147 105.598 22.0349 105.507 21.7297 105.371C21.1675 105.121 20.7761 104.732 20.5554 104.204C20.3346 103.676 20.3561 103.138 20.6199 102.589C20.8359 102.14 21.1108 101.822 21.4446 101.635C21.7837 101.447 22.1796 101.357 22.6322 101.365C23.0884 101.375 23.5964 101.47 24.1559 101.65C24.7155 101.831 25.3073 102.043 25.9315 102.286L26.0055 102.133C26.1144 101.906 26.1617 101.699 26.1476 101.513C26.1371 101.328 26.0742 101.158 25.9586 101.003C25.8489 100.855 25.6966 100.721 25.5017 100.6C25.3068 100.479 25.0959 100.367 24.8688 100.266C24.5933 100.144 24.2692 100.042 23.8964 99.9621C23.5253 99.8785 23.1277 99.8217 22.7037 99.7918L22.6478 99.7669L23.1353 98.753C23.3656 98.7911 23.6896 98.8645 24.1074 98.9733C24.5252 99.082 24.922 99.2201 25.298 99.3876C25.7373 99.5832 26.1019 99.7886 26.3917 100.004C26.687 100.217 26.9138 100.46 27.072 100.732C27.2283 100.999 27.3058 101.289 27.3044 101.602C27.303 101.916 27.2105 102.263 27.0267 102.645L25.0922 106.669ZM24.7498 104.744L25.5435 103.093C25.2149 102.969 24.8243 102.827 24.3717 102.668C23.9228 102.511 23.5557 102.41 23.2702 102.364C22.9295 102.312 22.6245 102.33 22.355 102.421C22.0872 102.508 21.8809 102.702 21.7363 103.003C21.573 103.342 21.5576 103.647 21.6901 103.917C21.8244 104.183 22.113 104.414 22.556 104.612C22.9245 104.776 23.2938 104.859 23.6637 104.86C24.0353 104.858 24.3973 104.819 24.7498 104.744Z" fill="#004B75"/>
<path d="M28.3099 107.764L27.2192 107.393L30.3446 98.802L31.4353 99.1724L28.3099 107.764Z" fill="#004B75"/>
<path d="M33.9499 109.317C33.7256 109.314 33.4841 109.296 33.2256 109.263C32.9711 109.231 32.747 109.189 32.5534 109.137C31.8779 108.956 31.4137 108.645 31.1608 108.205C30.9078 107.765 30.8902 107.163 31.1078 106.399L32.0629 103.047L31.3104 102.845L31.5645 101.954L32.317 102.155L32.8331 100.344L33.9471 100.643L33.4309 102.454L35.73 103.071L35.4759 103.962L33.1769 103.346L32.3584 106.218C32.2641 106.549 32.198 106.811 32.1602 107.003C32.1235 107.192 32.1295 107.38 32.1782 107.567C32.2222 107.74 32.3091 107.883 32.4389 107.995C32.5736 108.104 32.797 108.2 33.1091 108.284C33.2908 108.333 33.4874 108.359 33.6988 108.363C33.9113 108.363 34.0659 108.358 34.1624 108.348L34.2217 108.364L33.9499 109.317Z" fill="#004B75"/>
<path d="M40.9562 110.645L39.8175 110.454L40.4561 106.782C40.5076 106.485 40.5376 106.205 40.5461 105.941C40.5553 105.673 40.5242 105.458 40.4527 105.296C40.3798 105.117 40.2552 104.973 40.0788 104.865C39.9031 104.752 39.6638 104.671 39.361 104.62C39.05 104.568 38.7122 104.587 38.3475 104.676C37.9829 104.766 37.6255 104.898 37.2751 105.073L36.4376 109.889L35.299 109.698L36.8613 100.714L38 100.904L37.4347 104.155C37.8389 103.933 38.2445 103.776 38.6515 103.681C39.0586 103.587 39.4618 103.573 39.8616 103.64C40.5925 103.762 41.1133 104.065 41.424 104.549C41.7346 105.033 41.8213 105.669 41.6841 106.458L40.9562 110.645Z" fill="#004B75"/>
<path d="M51.297 103.077L51.2356 103.076C51.1088 103.039 50.9431 103.002 50.7385 102.965C50.5339 102.924 50.3539 102.902 50.1983 102.901C49.7031 102.895 49.3427 102.997 49.1171 103.205C48.8957 103.41 48.7843 103.786 48.7832 104.333L48.7827 104.556L50.8641 104.579L50.8621 105.505L48.8176 105.482L48.8058 111.104L47.6516 111.091L47.6634 105.47L46.8837 105.461L46.8856 104.535L47.6653 104.544L47.6658 104.327C47.6674 103.549 47.8713 102.955 48.2774 102.545C48.6834 102.132 49.2692 101.929 50.0346 101.937C50.2925 101.94 50.5237 101.954 50.7283 101.98C50.937 102.006 51.1273 102.035 51.2991 102.068L51.297 103.077Z" fill="#004B75"/>
<path d="M57.5201 107.391C57.6225 108.455 57.4181 109.317 56.9068 109.977C56.3954 110.638 55.6609 111.006 54.7031 111.081C53.7371 111.157 52.9391 110.91 52.3092 110.34C51.6834 109.769 51.3192 108.952 51.2168 107.889C51.1143 106.826 51.3167 105.964 51.824 105.304C52.3349 104.639 53.0734 104.269 54.0394 104.193C54.9972 104.117 55.7912 104.367 56.4215 104.941C57.0514 105.511 57.4176 106.328 57.5201 107.391ZM56.334 107.485C56.2526 106.64 56.0189 106.026 55.6331 105.645C55.2468 105.259 54.746 105.091 54.1306 105.139C53.507 105.189 53.0418 105.433 52.7352 105.874C52.4322 106.309 52.3214 106.95 52.4029 107.795C52.4817 108.613 52.7148 109.221 53.1021 109.618C53.4891 110.011 53.9923 110.184 54.6119 110.135C55.2232 110.086 55.6821 109.84 55.9884 109.396C56.2983 108.948 56.4136 108.311 56.334 107.485Z" fill="#004B75"/>
<path d="M62.7068 104.333L62.6466 104.344C62.47 104.336 62.2998 104.339 62.136 104.353C61.9755 104.362 61.7868 104.386 61.57 104.425C61.2207 104.488 60.899 104.624 60.605 104.833C60.3101 105.037 60.0364 105.284 59.784 105.573L60.7326 110.141L59.6005 110.345L58.2642 103.911L59.3964 103.706L59.5938 104.657C59.9716 104.23 60.3164 103.915 60.6282 103.711C60.9431 103.503 61.2792 103.366 61.6365 103.302C61.8333 103.266 61.977 103.246 62.0677 103.242C62.1577 103.234 62.2937 103.227 62.4759 103.222L62.7068 104.333Z" fill="#004B75"/>
<path d="M74.0454 106.293L72.9795 106.691L72.708 106.041C72.6389 106.138 72.5462 106.274 72.4299 106.447C72.316 106.616 72.1967 106.762 72.0721 106.884C71.9285 107.035 71.7522 107.18 71.5432 107.321C71.3358 107.466 71.0763 107.597 70.7647 107.713C70.1909 107.927 69.6284 107.927 69.0773 107.711C68.5262 107.496 68.1328 107.106 67.897 106.542C67.7038 106.079 67.6504 105.668 67.737 105.307C67.8258 104.941 68.0278 104.605 68.3432 104.298C68.6623 103.989 69.0814 103.705 69.6004 103.443C70.1194 103.182 70.6845 102.921 71.2955 102.659L71.2293 102.501C71.1319 102.268 71.0076 102.091 70.8563 101.971C70.7088 101.849 70.537 101.774 70.3409 101.746C70.1539 101.719 69.948 101.731 69.723 101.781C69.498 101.832 69.2697 101.9 69.0379 101.986C68.7567 102.091 68.4584 102.245 68.143 102.447C67.8262 102.645 67.5116 102.88 67.1993 103.153L67.1423 103.174L66.7064 102.13C66.8926 101.998 67.1696 101.825 67.5374 101.612C67.9052 101.399 68.281 101.221 68.6648 101.077C69.1131 100.91 69.5178 100.801 69.8789 100.751C70.2421 100.695 70.5811 100.707 70.8958 100.788C71.2052 100.866 71.4781 101.015 71.7146 101.234C71.951 101.453 72.1514 101.759 72.3157 102.152L74.0454 106.293ZM72.352 105.188L71.6423 103.49C71.3231 103.63 70.9489 103.801 70.5195 104.003C70.0939 104.204 69.7664 104.388 69.5369 104.553C69.2641 104.752 69.07 104.976 68.9545 105.225C68.8376 105.471 68.8437 105.749 68.9731 106.058C69.1191 106.408 69.3396 106.631 69.6345 106.727C69.9279 106.819 70.3007 106.781 70.7529 106.612C71.1291 106.472 71.4441 106.275 71.6979 106.02C71.9501 105.761 72.1682 105.484 72.352 105.188Z" fill="#004B75"/>
<path d="M77.0722 104.83L76.0478 105.329L71.6466 97.1934L72.6711 96.6949L77.0722 104.83Z" fill="#004B75"/>
<path d="M80.076 103.213L79.087 103.773L74.1616 95.9126L75.1506 95.3534L80.076 103.213Z" fill="#004B75"/>
</svg>
