<svg width="221" height="89" viewBox="0 0 221 89" fill="none" xmlns="http://www.w3.org/2000/svg">
<rect x="16" y="24.6223" width="60" height="14" rx="7" fill="#EEF7FF"/>
<rect x="56" y="10.6223" width="60" height="14" rx="7" fill="#EEF7FF"/>
<rect x="132" y="24.6223" width="60" height="14" rx="7" fill="#EEF7FF"/>
<rect x="132" y="38.6223" width="81" height="14" rx="7" fill="#EEF7FF"/>
<rect x="116" y="66.6223" width="85" height="14" rx="7" fill="#EEF7FF"/>
<rect x="207" y="66.6223" width="14" height="14" rx="7" fill="#EEF7FF"/>
<path fill-rule="evenodd" clip-rule="evenodd" d="M137 52.6223C133.134 52.6223 130 55.7563 130 59.6223C130 63.4883 133.134 66.6223 137 66.6223H183C183.695 66.6223 184.366 66.521 185 66.3324C182.109 65.4719 180 62.7933 180 59.6223C180 56.4513 182.109 53.7727 185 52.9122C184.366 52.7236 183.695 52.6223 183 52.6223H137Z" fill="#EEF7FF"/>
<path fill-rule="evenodd" clip-rule="evenodd" d="M49.5 52.6047C49.6652 52.6164 49.8319 52.6223 50 52.6223H96C99.866 52.6223 103 49.4883 103 45.6223C103 41.7563 99.866 38.6223 96 38.6223H50C49.8319 38.6223 49.6652 38.6282 49.5 38.6399C53.1326 38.8963 56 41.9244 56 45.6223C56 49.3202 53.1326 52.3484 49.5 52.6047Z" fill="#EEF7FF"/>
<rect y="52.6223" width="76" height="14" rx="7" fill="#EEF7FF"/>
<rect x="40" y="66.6223" width="76" height="14" rx="7" fill="#EEF7FF"/>
<path fill-rule="evenodd" clip-rule="evenodd" d="M147.984 50.2447C146.192 50.4936 144.361 50.6223 142.5 50.6223C120.685 50.6223 103 32.9376 103 11.1223C103 10.747 103.005 10.3728 103.016 10C83.7962 12.6696 69 29.1681 69 49.1223C69 70.9376 86.6848 88.6223 108.5 88.6223C129.94 88.6223 147.39 71.5409 147.984 50.2447Z" fill="#EEF7FF"/>
<circle cx="108.5" cy="44.5" r="44.5" fill="#FF9B04"/>
<circle cx="108.5" cy="44.5" r="41.5" fill="white"/>
<path d="M103.074 22.3072C101.551 22.8282 100.482 23.7499 99.8146 25.1391C99.307 26.1676 99.2135 26.9958 99.2135 30.4421C99.2135 33.1537 99.2536 33.7147 99.4406 34.1154C99.7478 34.77 100.322 35.0906 101.204 35.0906C101.858 35.0906 101.965 35.0505 102.433 34.5696L102.954 34.0487V30.6692C102.954 26.8756 103.007 26.6218 103.875 26.0474L104.329 25.7402H116.098C127.238 25.7402 127.892 25.7535 128.32 25.9806C128.574 26.1142 128.894 26.4348 129.028 26.6886C129.255 27.116 129.268 27.6503 129.268 35.1306C129.268 43.6795 129.282 43.4925 128.6 44.107C128.32 44.3608 128.066 44.3741 123.872 44.4409C120.078 44.4944 119.397 44.5344 119.05 44.7348C118.836 44.855 117.687 45.6698 116.512 46.5648L114.374 48.1677L114.294 46.9655C114.241 46.0706 114.147 45.6698 113.96 45.416C113.48 44.7882 113.052 44.5478 112.371 44.5478C111.676 44.5478 111.262 44.7882 110.781 45.4294C110.527 45.7633 110.501 46.0171 110.461 48.5551C110.434 50.0645 110.447 51.6274 110.501 52.0147C110.648 53.2303 111.569 54.0318 112.611 53.8581C113.039 53.778 113.88 53.2169 116.699 51.0664L120.252 48.3815L124.326 48.3147C127.812 48.2479 128.507 48.2078 129.148 47.9941C130.724 47.4731 132.007 46.2576 132.648 44.7081L132.942 43.9734V35.0772V26.1943L132.447 25.1925C131.833 23.9502 130.951 23.082 129.696 22.4943L128.801 22.0668L116.378 22.0401L103.955 22L103.074 22.3072Z" fill="#FF9B04"/>
<path d="M122.924 29.6673C122.71 29.7742 120.693 31.6977 118.449 33.9418C116.205 36.1859 114.321 38.0292 114.241 38.0292C114.174 38.0292 113.052 36.974 111.743 35.6783L109.379 33.3273L108.564 33.3807C107.869 33.4342 107.682 33.501 107.335 33.8483C106.828 34.3558 106.681 35.3443 107.001 35.9721C107.108 36.1859 108.618 37.7621 110.341 39.4585L113.466 42.5708H114.254H115.029L120.145 37.4682C123.765 33.8483 125.301 32.232 125.408 31.9114C125.689 31.0565 125.261 30.0947 124.406 29.694C123.859 29.4402 123.458 29.4269 122.924 29.6673Z" fill="#FF9B04"/>
<path d="M101.097 38.9643C98.7063 39.3116 96.7026 40.9679 95.8611 43.3189C95.447 44.4276 95.447 46.4579 95.8611 47.5666C96.9297 50.532 99.9619 52.4021 102.954 51.9346C106.253 51.427 108.564 48.7555 108.564 45.4428C108.564 42.1167 106.187 39.3917 102.914 38.9643C102.38 38.8975 101.925 38.8441 101.885 38.8574C101.845 38.8574 101.498 38.9108 101.097 38.9643ZM103.355 43.025C104.998 43.8265 105.345 46.2442 103.996 47.4598C102.38 48.9291 99.8551 48.1811 99.3608 46.0706C99.0135 44.6413 99.9085 43.1319 101.311 42.7712C102.072 42.5708 102.54 42.6243 103.355 43.025Z" fill="#FF9B04"/>
<path d="M94.9659 54.192C92.3879 54.8733 90.1304 56.6899 89.0217 59.0142C87.3654 62.4337 87.7394 65.2923 90.0236 66.5479L90.7315 66.9486L101.845 66.9887C112.785 67.0154 112.959 67.0154 113.68 66.7483C114.548 66.4143 115.363 65.6663 115.804 64.7713C116.392 63.5558 116.124 61.1781 115.189 59.2012C114.254 57.2242 112.865 55.8217 110.902 54.8599C109.045 53.9516 108.845 53.9249 102.019 53.9382C96.4753 53.9382 95.8609 53.965 94.9659 54.192ZM109.112 58.1459C110.995 59.0409 112.117 60.6304 112.344 62.7009L112.411 63.2753H102.059H91.6933L91.7868 62.5005C91.9604 61.0178 93.0424 59.308 94.3381 58.4932C95.6071 57.6918 95.7807 57.665 102.286 57.7051L108.23 57.7318L109.112 58.1459Z" fill="#FF9B04"/>
</svg>
