<svg width="48" height="52" viewBox="0 0 48 52" fill="none" xmlns="http://www.w3.org/2000/svg">
<path d="M25.2027 22.543L23.2275 29.5618L25.2027 32.3692L27.1778 29.5618L25.2027 22.543Z" fill="#17D1E6"/>
<path fill-rule="evenodd" clip-rule="evenodd" d="M37.0549 17.1148C35.8491 16.4718 34.7006 15.7134 33.6234 14.8491C31.5917 13.2025 29.1531 10.5396 29.1531 7.0303C29.1531 3.90276 31.3705 0.785049 34.6676 0.785049C36.1977 0.785049 37.4354 1.43639 38.3703 2.40918C39.3039 1.43639 40.5429 0.785049 42.0743 0.785049C45.3701 0.785049 47.5875 3.90557 47.5875 7.02889C47.5875 10.4302 45.1371 13.0973 43.1251 14.7537C42.0445 15.6373 40.8947 16.4202 39.6884 17.0937C39.6963 19.5418 39.7331 21.8791 39.7674 24.0914C39.8464 28.9413 39.9122 33.1932 39.637 36.704C39.2183 42.0214 37.9819 46.2887 34.2844 48.5979C30.6489 50.8677 25.2765 51.7212 20.8272 51.1443C18.594 50.8551 16.4622 50.1897 14.8492 49.0415C13.676 48.2062 12.745 47.0819 12.3079 45.6725C9.57299 45.5391 6.85259 45.0071 4.70102 44.0554C2.37696 43.0278 0.18457 41.2479 0.18457 38.4615V10.7825H0.18852C0.185926 10.7255 0.184609 10.6684 0.18457 10.6112C0.18457 6.73551 6.07966 3.59253 13.3521 3.59253C20.6245 3.59253 26.5196 6.73551 26.5196 10.6112C26.5196 10.6674 26.5182 10.7263 26.5156 10.7825H26.5196V19.1334C28.7132 19.4715 30.7191 20.6409 32.1698 22.4274C33.6205 24.2138 34.4189 26.4976 34.4188 28.8605C34.4186 31.2234 33.6199 33.5071 32.1689 35.2933C30.718 37.0795 28.7119 38.2486 26.5182 38.5864C26.4577 41.4149 24.3364 43.2047 21.9965 44.221C20.0609 45.0605 17.6776 45.5237 15.2416 45.6613C15.5049 46.0375 15.8605 46.3856 16.3134 46.7071C17.459 47.524 19.1444 48.0982 21.1459 48.3579C25.1633 48.8786 29.9247 48.0659 32.9545 46.175C35.4708 44.6028 36.6085 41.6059 37.0127 36.4696C37.2774 33.0978 37.2129 29.0831 37.1378 24.344C37.0939 21.9345 37.0662 19.5247 37.0549 17.1148ZM34.6676 3.59253C33.1112 3.59253 31.7866 5.13103 31.7866 7.02889C31.7866 9.12749 33.2982 11.0604 35.2167 12.6116C36.2003 13.4008 37.2513 14.0898 38.3558 14.6695C39.4664 14.0583 40.524 13.3434 41.516 12.533C43.4556 10.9355 44.954 9.00396 44.954 7.0303C44.954 5.12963 43.6294 3.59253 42.0743 3.59253C40.9893 3.59253 40.1255 4.23545 39.5211 5.39634L38.3703 7.61004L37.2195 5.39634C36.6138 4.23545 35.75 3.59253 34.6676 3.59253ZM13.3521 17.6299C17.6591 17.6299 21.4843 16.528 23.8861 14.8225V19.132C21.6914 19.4684 19.684 20.6368 18.2319 22.4231C16.7797 24.2093 15.9801 26.4936 15.9797 28.8574C15.9792 31.2211 16.7778 33.5058 18.2293 35.2927C19.6807 37.0796 21.6876 38.2489 23.8821 38.5864C23.8242 39.6785 22.9959 40.7552 21.0037 41.6199C18.9957 42.4916 16.2213 42.9296 13.3665 42.8959C12.9625 42.8909 12.5586 42.8763 12.1551 42.8524V17.6019C12.5502 17.6201 12.9491 17.6299 13.3521 17.6299ZM23.8861 10.6112C23.8861 10.913 23.5885 11.942 21.4856 13.0636C19.5395 14.0995 16.6676 14.8225 13.3521 14.8225C10.0365 14.8225 7.16334 14.0995 5.2185 13.0636C3.11565 11.942 2.81807 10.913 2.81807 10.6112C2.81807 10.3094 3.11565 9.28049 5.2185 8.1589C7.16466 7.12294 10.0365 6.40002 13.3521 6.40002C16.6676 6.40002 19.5408 7.12294 21.4856 8.1589C23.5885 9.28049 23.8861 10.3094 23.8861 10.6112ZM25.2028 35.8786C26.9489 35.8786 28.6235 35.1391 29.8582 33.8229C31.0929 32.5066 31.7866 30.7214 31.7866 28.8599C31.7866 26.9984 31.0929 25.2132 29.8582 23.8969C28.6235 22.5806 26.9489 21.8412 25.2028 21.8412C23.4567 21.8412 21.7821 22.5806 20.5474 23.8969C19.3127 25.2132 18.6191 26.9984 18.6191 28.8599C18.6191 30.7214 19.3127 32.5066 20.5474 33.8229C21.7821 35.1391 23.4567 35.8786 25.2028 35.8786Z" fill="#17D1E6"/>
</svg>
