<svg width="38" height="61" viewBox="0 0 38 61" fill="none" xmlns="http://www.w3.org/2000/svg">
<path d="M8.42257 0.556377C3.95643 1.44026 0.706324 5.16437 0.186748 9.98449C0.0983099 10.8212 0.0762003 14.8518 0.109365 24.0677C0.153584 37.9624 0.131474 37.4674 0.739488 39.6241C2.36454 45.4342 7.59346 50.5607 13.4967 52.1046L14.2816 52.3049L14.3369 56.0408C14.3922 59.5882 14.4032 59.7767 14.6243 60.0949C15.0444 60.7078 15.1328 60.7195 18.7588 60.7195C22.3848 60.7195 22.4732 60.7078 22.8933 60.0949C23.1144 59.7767 23.1255 59.5882 23.1807 56.0408L23.236 52.3049L24.0209 52.1046C25.7897 51.645 27.8569 50.6786 29.482 49.5472C33.0416 47.0841 35.7058 43.4661 36.7781 39.6241C37.3751 37.491 37.364 37.7621 37.4083 26.1891C37.4304 20.2611 37.4193 15.2878 37.3861 15.1464C37.2977 14.7575 36.9329 14.4039 36.6234 14.4039C36.4797 14.4039 36.2364 14.51 36.0817 14.6396L35.7943 14.8871L35.75 25.8709C35.7169 36.5128 35.7058 36.89 35.4847 37.9153C35.1089 39.6595 34.4566 41.3683 33.7049 42.6176C33.1411 43.5486 31.914 45.1396 31.1512 45.9056C30.3442 46.707 28.9624 47.8737 28.8076 47.8737C28.7523 47.8737 28.7081 46.2238 28.7081 44.2085C28.7081 40.1073 28.7081 40.0955 27.9343 39.6359C27.5253 39.3884 27.4479 39.3884 18.7588 39.3884C10.0697 39.3884 9.99235 39.3884 9.58333 39.6359C8.80949 40.0955 8.80949 40.1073 8.80949 44.2085C8.80949 46.2238 8.76527 47.8737 8.71 47.8737C8.55523 47.8737 7.17338 46.707 6.36638 45.9056C4.59761 44.1261 3.28209 41.9929 2.53037 39.7184C1.75653 37.4085 1.78969 38.0685 1.78969 23.3017C1.78969 10.9037 1.80075 9.92556 1.98868 9.08882C2.59669 6.29574 4.56445 3.868 7.04072 2.81912C8.54418 2.18272 8.1462 2.2063 18.7588 2.2063C26.6077 2.2063 28.7634 2.24165 29.2056 2.3595C32.9532 3.42017 35.3742 6.46073 35.7279 10.562C35.8274 11.6344 36.0154 11.929 36.5902 11.929C37.3198 11.929 37.4967 11.4223 37.3198 9.91378C36.8223 5.44721 34.0144 1.99416 29.8689 0.709583L28.9845 0.438526L19.0905 0.414955C11.3189 0.403168 9.03059 0.426739 8.42257 0.556377ZM14.3369 45.8113C14.3369 49.7947 14.3148 50.4665 14.1821 50.4665C13.8836 50.4665 12.1923 49.8536 11.33 49.4412L10.4677 49.0169V45.0924V41.1562H12.4023H14.3369V45.8113ZM21.5225 42.1579V43.1597H18.7588H15.9951V42.1579V41.1562H18.7588H21.5225V42.1579ZM27.0499 45.0924V49.0169L26.1987 49.4412C25.3254 49.8536 23.634 50.4665 23.3355 50.4665C23.2028 50.4665 23.1807 49.7947 23.1807 45.8113V41.1562H25.1153H27.0499V45.0924ZM21.5225 46.6952V48.463H18.7588H15.9951V46.6952V44.9274H18.7588H21.5225V46.6952ZM21.5004 54.6148L21.5225 58.9518H18.7588H15.9951V54.6738C15.9951 52.3167 16.0283 50.3486 16.0725 50.3015C16.1167 50.2661 17.3438 50.2425 18.803 50.2543L21.4672 50.2897L21.5004 54.6148Z" fill="#5C23E5"/>
<path d="M5.85768 10.7623C5.52603 10.9391 5.32705 11.1512 5.16122 11.5166C4.94013 12.0115 4.92907 12.1294 4.96224 19.6719C4.9954 28.1807 4.95118 27.6858 5.74713 28.1925C6.08983 28.4165 6.41042 28.4282 18.7586 28.4282C31.1068 28.4282 31.4274 28.4165 31.7701 28.1925C32.5661 27.6858 32.5219 28.1807 32.555 19.6719C32.5882 12.1176 32.5771 12.0115 32.356 11.5048C32.1792 11.1394 31.9912 10.9391 31.6485 10.7623C31.1842 10.5148 31.0737 10.5148 18.7476 10.5148C6.38831 10.5148 6.32198 10.5148 5.85768 10.7623ZM30.9189 19.4715V26.6605H18.7586H6.59835V19.4715V12.2826H18.7586H30.9189V19.4715Z" fill="#5C23E5"/>
<path d="M18.2392 22.5592C18.1065 22.6299 17.9407 22.8303 17.8744 22.9953C17.5428 23.8674 18.5819 24.5981 19.1789 23.9145C19.7869 23.2192 19.0351 22.135 18.2392 22.5592Z" fill="#5C23E5"/>
<path d="M5.34958 31.0328C5.04004 31.2213 4.90738 31.7163 5.0511 32.0934C5.25008 32.6002 5.637 32.6945 7.31733 32.6473C8.75445 32.612 8.84289 32.6002 9.04188 32.3291C9.3293 31.952 9.30719 31.5395 8.97555 31.1977C8.72129 30.9149 8.66602 30.9031 7.1294 30.9031C6.23396 30.9031 5.46012 30.962 5.34958 31.0328Z" fill="#5C23E5"/>
<path d="M11.9273 30.9856C11.8499 31.021 11.7173 31.186 11.6288 31.3745C11.4188 31.7988 11.5846 32.3527 11.9715 32.5413C12.3585 32.7298 31.6712 32.7298 32.0692 32.5413C32.633 32.2702 32.6772 31.3274 32.1466 31.0328C31.9255 30.9031 12.2258 30.856 11.9273 30.9856Z" fill="#5C23E5"/>
</svg>
