<svg width="29" height="42" viewBox="0 0 29 42" fill="none" xmlns="http://www.w3.org/2000/svg">
<path d="M13.584 2.48153V3.96301H14.3247H15.0655V2.48153V1.00005H14.3247H13.584V2.48153Z" fill="#00C4D8" stroke="#00C4D8"/>
<path d="M5.36429 3.99069L4.88281 4.47218L5.94763 5.53699L7.01244 6.60181L7.54022 6.06477L8.07726 5.53699L7.05874 4.51847C6.50318 3.96292 6.00318 3.49995 5.94763 3.49995C5.89207 3.49995 5.63281 3.72218 5.36429 3.99069Z" fill="#00C4D8" stroke="#00C4D8"/>
<path d="M21.5966 4.51847L20.5781 5.53699L21.1152 6.06477L21.6429 6.60181L22.6615 5.58329C23.217 5.02773 23.68 4.52773 23.68 4.47218C23.68 4.35181 22.8281 3.49995 22.6985 3.49995C22.6522 3.49995 22.1522 3.96292 21.5966 4.51847Z" fill="#00C4D8" stroke="#00C4D8"/>
<path d="M9.81653 7.06483C7.5943 7.66668 6.47393 9.79631 7.10356 12.25C7.46467 13.6574 8.32579 15.0833 9.77023 16.6482C11.1036 18.0834 13.8443 20.2593 14.335 20.2593C14.798 20.2593 16.9091 18.6111 18.4925 17.0185C20.1776 15.3241 21.1499 13.8056 21.548 12.25C22.1776 9.77779 21.0573 7.64816 18.798 7.06483C17.4462 6.71298 15.8258 7.10186 14.7517 8.04631L14.3258 8.42594L13.8999 8.04631C12.8258 7.10186 11.1591 6.70372 9.81653 7.06483ZM12.1313 8.66668C12.6684 8.90742 13.1776 9.37038 13.5573 9.95372C14.0573 10.7408 14.5943 10.7408 15.0943 9.95372C15.6962 9.01853 16.5017 8.50927 17.511 8.4352C19.4554 8.27779 20.6499 9.87038 20.1128 11.9259C19.9369 12.6111 19.4276 13.6111 18.8536 14.3982C18.0758 15.4722 15.9369 17.4815 14.6221 18.3982L14.3165 18.6111L13.4184 17.9352C12.2795 17.0648 10.5758 15.4167 9.91838 14.5556C8.83505 13.1019 8.33505 11.8333 8.42764 10.7037C8.52023 9.55557 9.15912 8.76853 10.2054 8.49075C10.6406 8.37038 11.6869 8.47224 12.1313 8.66668Z" fill="#00C4D8" stroke="#00C4D8"/>
<path d="M1.72852 12.1112V12.8519H3.21H4.69148V12.1112V11.3704H3.21H1.72852V12.1112Z" fill="#00C4D8" stroke="#00C4D8"/>
<path d="M23.9551 12.1112V12.8519H25.4366H26.918V12.1112V11.3704H25.4366H23.9551V12.1112Z" fill="#00C4D8" stroke="#00C4D8"/>
<path d="M1.2045 21.2407C0.982279 21.463 0.97302 21.5185 1.02858 22.1204C1.19524 23.9537 1.9545 26.4907 2.93598 28.4815C3.63043 29.8981 3.93599 30.3796 6.55636 34.1667L8.39895 36.8148V38.9074V41H9.13969H9.88043V38.7222C9.88043 36.3426 9.85266 36.3889 9.76932 36.25C9.71377 36.1389 8.65821 34.5833 7.42673 32.8056C4.59339 28.713 4.09339 27.8333 3.31561 25.5555C3.0471 24.7685 2.56561 22.8889 2.56561 22.5926C2.56561 22.5 2.76006 22.4815 3.36191 22.5L4.15821 22.5278L4.4545 23.5C5.06562 25.4907 5.83413 26.9537 7.57488 29.4352C8.80636 31.1944 9.08414 31.4907 9.77858 31.8241L10.2971 32.0648H14.3249C18.3341 32.0648 18.3527 32.0648 18.8249 31.8518C19.436 31.5741 19.8619 31.1296 20.899 29.6667C22.6304 27.2037 23.4638 25.6574 24.0934 23.75L24.4823 22.5278L25.2878 22.5L26.0841 22.4722L26.0286 22.7778C25.6304 25 24.7323 27.3889 23.5934 29.2685C23.3434 29.6852 22.149 31.4444 20.9545 33.1759L18.7693 36.3241V38.6574V41H19.5101H20.2508V38.8889V36.787L22.3064 33.8241C23.436 32.1944 24.5841 30.4815 24.8712 30.0278C26.2508 27.7685 27.3249 24.6389 27.6212 22.0463C27.6767 21.5185 27.6675 21.463 27.4453 21.2407L27.2045 21H25.4638C24.0564 21 23.6767 21.0278 23.5193 21.1389C23.3712 21.2407 23.1767 21.7222 22.8064 22.8796C22.0841 25.1389 21.4453 26.3241 19.399 29.2222C18.8434 30 18.5656 30.3148 18.2878 30.4537C17.7045 30.75 17.6119 30.6574 17.9915 30.1018C19.1675 28.3518 18.936 26.0648 17.436 24.5555C17.1212 24.2407 16.649 23.8796 16.3804 23.7407C14.2323 22.6481 11.6304 23.4167 10.436 25.5C9.61191 26.9167 9.72302 28.8611 10.686 30.2037L11.0101 30.6574L10.723 30.6018C10.223 30.5 9.97303 30.2593 9.03784 28.9259C7.19525 26.3426 6.48228 24.9907 5.76932 22.7593C5.53784 22.0185 5.31562 21.3704 5.26932 21.3148C5.09339 21.0463 4.7508 21 3.12117 21H1.44524L1.2045 21.2407ZM15.4823 24.9722C16.0841 25.2407 16.7601 25.9074 17.0193 26.5C17.3156 27.1574 17.3156 28.1759 17.0193 28.8333C16.7601 29.4167 16.0934 30.0926 15.4823 30.3704C14.8064 30.6759 13.7138 30.6667 13.0749 30.3518C11.0008 29.3333 10.7601 26.537 12.6304 25.25C12.8619 25.0833 13.223 24.8981 13.436 24.8333C13.9638 24.6574 14.9175 24.7222 15.4823 24.9722Z" fill="#00C4D8" stroke="#00C4D8"/>
</svg>
