<svg width="42" height="44" viewBox="0 0 42 44" fill="none" xmlns="http://www.w3.org/2000/svg">
<path d="M20.4196 42C20.4196 39.5574 19.4492 37.2149 17.7221 35.4877C15.9949 33.7605 13.6524 32.7902 11.2098 32.7902C8.76719 32.7902 6.42465 33.7605 4.69748 35.4877C2.97031 37.2149 2 39.5574 2 42M32.2596 33.1662C33.5222 33.1662 34.7332 32.6646 35.626 31.7718M32.2596 33.1662C30.9969 33.1662 29.7859 32.6646 28.8931 31.7718M32.2596 33.1662V36.7378M35.626 31.7718C36.5189 30.8789 37.0204 29.668 37.0204 28.4053C37.0204 27.1427 36.5189 25.9317 35.626 25.0389M35.626 31.7718L38.1529 34.2969M35.626 25.0389C34.7332 24.146 33.5222 23.6444 32.2596 23.6444C30.9969 23.6444 29.7859 24.146 28.8931 25.0389M35.626 25.0389L38.1529 22.512M28.8931 25.0389C28.0003 25.9317 27.4987 27.1427 27.4987 28.4053M28.8931 25.0389L26.368 22.512M27.4987 28.4053C27.4987 29.668 28.0003 30.8789 28.8931 31.7718M27.4987 28.4053H23.9271M28.8931 31.7718L26.368 34.2969M31.4667 20.0711H33.0542M32.2596 20.0711V23.6427M37.5911 21.952L38.7129 23.0738M40.592 27.6107V29.1982M40.592 28.4053H37.0222M38.7129 33.7351L37.5911 34.8587M33.0542 36.7378H31.4667M26.9298 34.8587L25.8062 33.7351M23.9271 29.1982V27.6107M25.8062 23.0738L26.9298 21.952M4.99378 13.9324L2.736 8.33067L6.01067 9.008L3.75289 3.40622M11.3244 12.1778L11.424 6.14044L14.1778 8.03911L14.2791 2M18.4747 13.9324L20.6827 8.31111L22.5973 11.0524L24.8053 5.43111M11.2089 29.7209C12.0153 29.7209 12.8137 29.5621 13.5587 29.2535C14.3037 28.9449 14.9806 28.4926 15.5508 27.9224C16.121 27.3522 16.5733 26.6753 16.8819 25.9303C17.1905 25.1853 17.3493 24.3868 17.3493 23.5804C17.3493 22.7741 17.1905 21.9756 16.8819 21.2306C16.5733 20.4856 16.121 19.8087 15.5508 19.2385C14.9806 18.6683 14.3037 18.216 13.5587 17.9074C12.8137 17.5988 12.0153 17.44 11.2089 17.44C9.58034 17.44 8.0185 18.0869 6.86694 19.2385C5.71538 20.3901 5.06844 21.9519 5.06844 23.5804C5.06844 25.209 5.71538 26.7708 6.86694 27.9224C8.0185 29.074 9.58034 29.7209 11.2089 29.7209Z" stroke="#00C4D8" stroke-width="2.5" stroke-linecap="round" stroke-linejoin="round"/>
</svg>
