<svg width="33" height="32" viewBox="0 0 33 32" fill="none" xmlns="http://www.w3.org/2000/svg">
<path d="M29.8636 0.248047H3.42553C2.02763 0.248047 0.893555 1.38212 0.893555 2.78002V29.2181C0.893555 30.616 2.02763 31.7501 3.42553 31.7501H29.8636C31.2615 31.7501 32.3956 30.616 32.3956 29.2181V2.78002C32.3956 1.38212 31.2615 0.248047 29.8636 0.248047ZM29.8636 29.2299C12.2303 29.226 3.41372 29.222 3.41372 29.2181C3.41765 11.5848 3.42159 2.76821 3.42553 2.76821C21.0588 2.77215 29.8754 2.77608 29.8754 2.78002C29.8715 20.4133 29.8675 29.2299 29.8636 29.2299ZM5.56373 12.0574H10.2378V27.0917H5.56373V12.0574ZM7.90275 10.0019C9.39516 10.0019 10.6119 8.78903 10.6119 7.29269C10.6119 6.93691 10.5419 6.58462 10.4057 6.25593C10.2696 5.92724 10.07 5.62858 9.81843 5.37701C9.56686 5.12544 9.2682 4.92588 8.93951 4.78974C8.61082 4.65359 8.25853 4.58351 7.90275 4.58351C7.54698 4.58351 7.19469 4.65359 6.866 4.78974C6.53731 4.92588 6.23865 5.12544 5.98708 5.37701C5.73551 5.62858 5.53595 5.92724 5.3998 6.25593C5.26365 6.58462 5.19358 6.93691 5.19358 7.29269C5.18964 8.78903 6.40247 10.0019 7.90275 10.0019ZM17.8377 19.6533C17.8377 17.6923 18.2118 15.7943 20.6414 15.7943C23.0355 15.7943 23.071 18.0349 23.071 19.7793V27.0917H27.7411V18.8461C27.7411 14.798 26.867 11.6833 22.1377 11.6833C19.8656 11.6833 18.3417 12.9315 17.7156 14.1129H17.6526V12.0574H13.1675V27.0917H17.8377V19.6533Z" fill="black"/>
</svg>
