<svg width="500" height="373" viewBox="0 0 500 373" fill="none" xmlns="http://www.w3.org/2000/svg">
<path d="M449.899 343.543H416.777V343.793H449.899V343.543Z" fill="#EBEBEB"/>
<path d="M331.22 346.256H322.527V346.506H331.22V346.256Z" fill="#EBEBEB"/>
<path d="M415.778 334.256H396.586V334.506H415.778V334.256Z" fill="#EBEBEB"/>
<path d="M95.6539 335.936H52.4609V336.186H95.6539V335.936Z" fill="#EBEBEB"/>
<path d="M110.888 335.936H104.555V336.186H110.888V335.936Z" fill="#EBEBEB"/>
<path d="M225.149 340.158H131.473V340.408H225.149V340.158Z" fill="#EBEBEB"/>
<path d="M238.401 282.848H45.3017C42.1547 282.848 39.5938 280.287 39.5938 277.14V5.708C39.5938 2.561 42.1547 0 45.3017 0H238.401C241.547 0 244.108 2.561 244.108 5.708V277.14C244.108 280.287 241.547 282.848 238.401 282.848ZM45.3017 0.250999C42.2917 0.250999 39.8438 2.699 39.8438 5.709V277.141C39.8438 280.151 42.2917 282.599 45.3017 282.599H238.401C241.41 282.599 243.858 280.151 243.858 277.141V5.708C243.858 2.699 241.41 0.25 238.401 0.25L45.3017 0.250999Z" fill="#EBEBEB"/>
<path d="M454.697 282.848H261.598C258.452 282.848 255.891 280.287 255.891 277.14V5.708C255.891 2.561 258.452 0 261.598 0H454.697C457.845 0 460.405 2.561 460.405 5.708V277.14C460.405 280.287 457.844 282.848 454.697 282.848ZM261.598 0.250999C258.589 0.250999 256.141 2.699 256.141 5.709V277.141C256.141 280.151 258.589 282.599 261.598 282.599H454.697C457.707 282.599 460.155 280.151 460.155 277.141V5.708C460.155 2.699 457.707 0.25 454.697 0.25L261.598 0.250999Z" fill="#EBEBEB"/>
<path d="M500 327.445H0V327.695H500V327.445Z" fill="#EBEBEB"/>
<path d="M119.329 259.797C118.484 250.139 108.625 246.524 96.9423 247.546C85.2603 248.568 76.1783 253.841 77.0233 263.499L119.329 259.797Z" fill="#F0F0F0"/>
<path d="M96.5569 243.132C101.979 242.658 103.71 238.078 103.235 232.656C102.761 227.234 100.261 223.024 94.8389 223.499C89.4169 223.973 87.6859 228.553 88.1609 233.975C88.6349 239.397 91.1349 243.607 96.5569 243.132Z" fill="#F0F0F0"/>
<path d="M340.098 54.0205C340.36 57.0105 338.148 59.6465 335.158 59.9075C332.168 60.1695 329.532 57.9575 329.271 54.9675C329.009 51.9775 331.221 49.3415 334.211 49.0795C337.201 48.8185 339.837 51.0305 340.098 54.0205Z" fill="#F5F5F5"/>
<path d="M370.169 51.3896C370.431 54.3796 368.219 57.0156 365.229 57.2766C362.239 57.5386 359.603 55.3267 359.341 52.3367C359.079 49.3467 361.291 46.7106 364.281 46.4486C367.272 46.1876 369.907 48.3996 370.169 51.3896Z" fill="#F5F5F5"/>
<path d="M400.244 48.7579C400.506 51.7479 398.294 54.3839 395.304 54.6459C392.314 54.9079 389.678 52.6959 389.416 49.7059C389.154 46.7159 391.366 44.0799 394.356 43.8179C397.346 43.5559 399.982 45.7679 400.244 48.7579Z" fill="#F5F5F5"/>
<path d="M342.779 84.6731C343.041 87.6631 340.829 90.2991 337.839 90.5611C334.849 90.8231 332.213 88.6111 331.951 85.6211C331.689 82.6311 333.901 79.9951 336.891 79.7341C339.882 79.4711 342.518 81.6821 342.779 84.6731Z" fill="#F5F5F5"/>
<path d="M372.853 82.041C373.115 85.031 370.903 87.667 367.913 87.929C364.923 88.191 362.287 85.979 362.025 82.989C361.763 79.999 363.975 77.363 366.965 77.101C369.955 76.84 372.591 79.052 372.853 82.041Z" fill="#F5F5F5"/>
<path d="M402.927 79.409C403.189 82.399 400.977 85.035 397.987 85.296C394.997 85.558 392.361 83.346 392.099 80.356C391.837 77.366 394.049 74.73 397.039 74.468C400.029 74.208 402.665 76.42 402.927 79.409Z" fill="#F5F5F5"/>
<path d="M345.461 115.324C345.723 118.314 343.511 120.95 340.521 121.212C337.531 121.474 334.895 119.262 334.634 116.272C334.372 113.282 336.584 110.646 339.574 110.384C342.563 110.122 345.199 112.334 345.461 115.324Z" fill="#F5F5F5"/>
<path d="M375.537 112.695C375.799 115.685 373.587 118.321 370.597 118.583C367.607 118.845 364.971 116.633 364.709 113.643C364.447 110.653 366.659 108.017 369.649 107.756C372.639 107.493 375.275 109.705 375.537 112.695Z" fill="#F5F5F5"/>
<path d="M405.607 110.063C405.869 113.053 403.657 115.689 400.667 115.95C397.677 116.211 395.041 114 394.779 111.01C394.517 108.02 396.729 105.384 399.719 105.123C402.71 104.861 405.346 107.073 405.607 110.063Z" fill="#F5F5F5"/>
<path d="M399.109 111.828L337.323 117.234L392.105 50.6669L335.975 55.5779C335.319 55.6349 334.741 55.1499 334.684 54.4939C334.627 53.8379 335.112 53.2599 335.768 53.2029L397.554 47.7969L342.772 114.364L398.902 109.453C399.558 109.396 400.136 109.881 400.193 110.536C400.25 111.192 399.765 111.771 399.109 111.828Z" fill="#E6E6E6"/>
<path d="M400.058 230.654C399.854 230.065 399.327 229.628 398.705 229.587C395.871 229.397 393.477 228.337 391.582 226.434C389.111 223.953 387.658 220.177 387.423 215.694C387.379 214.859 386.679 214.208 385.843 214.203C384.917 214.197 384.179 214.979 384.229 215.903C384.514 221.161 386.292 225.658 389.314 228.693C391.675 231.064 394.72 232.453 398.19 232.756C398.25 232.761 398.328 232.768 398.418 232.775C399.569 232.866 400.436 231.744 400.058 230.654Z" fill="#F0F0F0"/>
<path d="M396.866 249.849C383.612 248.689 374.055 239.656 371.03 225.56C370.837 224.661 371.41 223.776 372.316 223.619C373.153 223.474 373.971 224.004 374.148 224.835C376.858 237.512 385.366 245.63 397.144 246.661C410.061 247.791 423.934 239.293 426.419 217.869C426.52 217.001 427.277 216.36 428.147 216.436C429.038 216.514 429.706 217.309 429.601 218.197C427.22 238.396 413.939 251.343 396.866 249.849Z" fill="#F0F0F0"/>
<path d="M371.859 211.511C370.968 211.433 370.3 210.638 370.405 209.75C372.787 189.55 386.069 176.604 403.141 178.097C418.1 179.406 428.186 190.605 429.757 207.475C429.84 208.366 429.149 209.142 428.256 209.195H428.253C427.382 209.247 426.647 208.589 426.564 207.721C425.122 192.522 416.146 182.447 402.861 181.285C389.944 180.155 376.071 188.652 373.586 210.077C373.486 210.946 372.729 211.587 371.859 211.511Z" fill="#F0F0F0"/>
<path d="M397.516 241.281C395.052 241.065 392.741 240.49 390.62 239.563C389.757 239.186 389.401 238.147 389.852 237.32C390.245 236.599 391.122 236.287 391.873 236.618C393.867 237.494 396.071 238.009 398.446 238.139C408.243 238.7 418.583 231.761 419.596 214.995C420.22 204.669 416.683 196.328 410.079 192.339C409.371 191.911 409.108 191.016 409.473 190.274C409.888 189.431 410.94 189.12 411.744 189.605C419.386 194.219 423.49 203.633 422.791 215.188C421.814 231.355 411.727 242.107 398.262 241.336C398.013 241.32 397.763 241.302 397.516 241.281Z" fill="#F0F0F0"/>
<path d="M383.266 231.307C382.492 231.836 381.434 231.589 380.964 230.777C378.129 225.873 376.803 219.55 377.214 212.759C378.149 197.294 387.421 186.783 400.012 186.576C400.946 186.561 401.701 187.342 401.648 188.275V188.279C401.6 189.11 400.923 189.764 400.091 189.78C390.754 189.964 381.373 197.022 380.41 212.952C380.036 219.136 381.219 224.843 383.755 229.207C384.171 229.924 383.951 230.839 383.266 231.307Z" fill="#F0F0F0"/>
<path d="M405.129 229.998C404.803 229.257 405.088 228.401 405.782 227.983C409.987 225.451 412.57 220.137 412.614 213.732C412.649 208.601 411.16 204.261 408.421 201.511C406.309 199.389 403.578 198.321 400.305 198.327C395.375 198.34 391.383 201.041 389.171 205.794C388.823 206.542 387.957 206.896 387.182 206.611C386.301 206.287 385.882 205.272 386.28 204.422C389.016 198.583 394.149 195.142 400.296 195.125C404.395 195.119 407.99 196.542 410.689 199.252C414.035 202.612 415.855 207.761 415.814 213.753C415.763 221.312 412.579 227.648 407.393 230.749C406.577 231.237 405.512 230.869 405.129 229.998Z" fill="#F0F0F0"/>
<path d="M393.609 218.242C392.7 218.607 391.683 218.079 391.45 217.127C391.344 216.694 391.256 216.248 391.187 215.789C390.282 209.805 393.499 204.594 398.67 203.67C401.339 203.191 403.719 203.819 405.538 205.443C406.276 206.103 406.219 207.28 405.414 207.857L405.314 207.928C404.708 208.362 403.909 208.264 403.344 207.778C402.259 206.847 400.881 206.525 399.233 206.82C395.292 207.525 393.794 211.625 394.352 215.31C394.406 215.669 394.474 216.017 394.556 216.351C394.746 217.136 394.358 217.94 393.609 218.242Z" fill="#F0F0F0"/>
<path d="M398.897 224.398C398.893 224.398 398.888 224.397 398.884 224.397C397.781 224.299 397.172 223.063 397.76 222.124L397.896 221.907C398.191 221.437 398.718 221.178 399.272 221.217C399.746 221.249 400.248 221.219 400.773 221.125C404.214 220.509 405.793 217.305 405.766 214.049C405.759 213.236 406.322 212.534 407.125 212.413C408.064 212.271 408.951 212.969 408.969 213.919C409.064 219.137 405.992 223.444 401.336 224.276C400.496 224.426 399.679 224.467 398.897 224.398Z" fill="#F0F0F0"/>
<path d="M399.608 218.49C397.904 218.341 396.634 217.193 396.173 215.554C395.906 214.604 396.703 213.684 397.685 213.77L398.052 213.802C398.622 213.852 399.092 214.242 399.282 214.782C399.375 215.046 399.553 215.272 399.886 215.301C400.655 215.368 400.79 214.265 400.81 214.043C400.824 213.885 400.857 213.272 400.595 212.911C400.338 212.557 400.162 212.152 400.2 211.716C400.325 210.293 402.123 209.721 403.03 210.825C403.751 211.703 404.121 212.932 403.999 214.322C403.77 216.939 401.923 218.693 399.608 218.49Z" fill="#F0F0F0"/>
<path d="M369.535 182.702C368.654 182.625 368.003 181.849 368.08 180.968L369.293 167.102L383.159 168.315C384.04 168.392 384.691 169.168 384.614 170.049C384.537 170.93 383.761 171.581 382.88 171.504L372.203 170.57L371.269 181.247C371.192 182.128 370.415 182.779 369.535 182.702Z" fill="#F0F0F0"/>
<path d="M435.464 188.47C434.583 188.393 433.932 187.617 434.009 186.736L434.943 176.059L424.266 175.125C423.385 175.048 422.734 174.272 422.811 173.391C422.888 172.51 423.664 171.859 424.545 171.936L438.411 173.149L437.198 187.015C437.121 187.896 436.345 188.547 435.464 188.47Z" fill="#F0F0F0"/>
<path d="M430.546 263.018L416.68 261.805C415.799 261.728 415.148 260.952 415.225 260.071C415.302 259.19 416.078 258.539 416.959 258.616L427.636 259.55L428.57 248.873C428.647 247.992 429.423 247.341 430.304 247.418C431.185 247.495 431.836 248.271 431.759 249.152L430.546 263.018Z" fill="#F0F0F0"/>
<path d="M375.296 258.185L361.43 256.972L362.643 243.106C362.72 242.225 363.496 241.574 364.377 241.651C365.258 241.728 365.909 242.504 365.832 243.385L364.898 254.062L375.575 254.996C376.456 255.073 377.107 255.849 377.03 256.73C376.953 257.611 376.177 258.262 375.296 258.185Z" fill="#F0F0F0"/>
<path d="M74.73 228.174C74.189 228.221 73.711 227.821 73.664 227.279L72.918 218.754L81.443 218.008C81.985 217.961 82.462 218.361 82.509 218.903C82.556 219.444 82.156 219.922 81.614 219.969L75.049 220.543L75.623 227.108C75.672 227.65 75.271 228.127 74.73 228.174Z" fill="#E0E0E0"/>
<path d="M115.267 224.628C114.726 224.675 114.248 224.275 114.201 223.733L113.627 217.168L107.062 217.742C106.521 217.789 106.043 217.389 105.996 216.847C105.949 216.306 106.349 215.828 106.891 215.781L115.416 215.035L116.162 223.56C116.209 224.103 115.809 224.581 115.267 224.628Z" fill="#E0E0E0"/>
<path d="M119.466 261.338L110.941 262.084C110.4 262.131 109.922 261.731 109.875 261.189C109.828 260.648 110.228 260.17 110.77 260.123L117.335 259.549L116.761 252.984C116.714 252.442 117.114 251.965 117.656 251.918C118.197 251.871 118.675 252.271 118.722 252.813L119.466 261.338Z" fill="#E0E0E0"/>
<path d="M85.4935 264.311L76.9685 265.057L76.2225 256.531C76.1755 255.99 76.5755 255.512 77.1175 255.465C77.6585 255.418 78.1365 255.818 78.1835 256.36L78.7575 262.925L85.3225 262.351C85.8635 262.304 86.3415 262.704 86.3885 263.246C86.4355 263.786 86.0345 264.263 85.4935 264.311Z" fill="#E0E0E0"/>
<path d="M114.583 85.9962L81.952 88.8512L81.284 81.2152C80.591 73.2932 86.472 66.2852 94.393 65.5922C102.315 64.8992 109.323 70.7802 110.016 78.7012L110.404 83.1382L115.112 82.7262L114.724 78.2892C113.804 67.7712 104.499 59.9642 93.981 60.8842C83.463 61.8042 75.656 71.1092 76.576 81.6272L77.248 89.3072C73.451 90.0472 70.748 93.5492 71.092 97.4882L73.423 124.131C73.792 128.344 77.506 131.46 81.719 131.092L118.249 127.896C122.462 127.528 125.578 123.814 125.21 119.601L122.879 92.9582C122.51 88.7442 118.796 85.6272 114.583 85.9962ZM100.722 106.526L101.525 115.7C101.657 117.206 100.543 118.533 99.037 118.665C97.531 118.797 96.204 117.683 96.072 116.177L95.269 107.003C94.071 106.265 93.216 105.002 93.084 103.492C92.862 100.957 94.738 98.7222 97.273 98.5002C99.808 98.2782 102.043 100.154 102.265 102.689C102.396 104.198 101.773 105.591 100.722 106.526Z" fill="#EBEBEB"/>
<path d="M170.445 101.441L167.146 96.0628C165.359 96.3098 163.897 96.3098 162.11 96.0628L158.811 101.441L158.178 101.273C156.052 100.708 154.001 99.8558 152.083 98.7428L151.516 98.4137L152.915 92.5758C153.028 92.1028 153.503 91.8118 153.976 91.9248C154.449 92.0378 154.74 92.5128 154.626 92.9858L153.534 97.5398C154.959 98.3158 156.457 98.9378 158.001 99.3958L161.223 94.1417L161.806 94.2367C163.674 94.5417 165.58 94.5417 167.448 94.2367L168.031 94.1417L171.253 99.3958C172.797 98.9368 174.295 98.3158 175.72 97.5398L174.286 91.5548L174.766 91.2107C176.074 90.2707 177.24 89.1597 178.241 87.9027C178.538 87.5287 179.067 87.4408 179.454 87.7197C179.856 88.0088 179.95 88.5788 179.643 88.9668C178.659 90.2088 177.529 91.3208 176.271 92.2848L177.74 98.4137L177.174 98.7428C175.256 99.8558 173.205 100.708 171.079 101.273L170.445 101.441ZM150.225 89.6997C149.948 89.3827 149.68 89.0567 149.423 88.7217L143.293 90.1898L142.964 89.6238C141.851 87.7058 140.999 85.6548 140.434 83.5288L140.266 82.8958L145.644 79.5967C145.52 78.7007 145.46 77.8728 145.46 77.0788C145.46 76.2858 145.521 75.4568 145.644 74.5608L140.266 71.2627L140.434 70.6298C140.999 68.5038 141.851 66.4528 142.964 64.5348L143.293 63.9688L149.422 65.4368C150.449 64.0968 151.644 62.9028 152.984 61.8748L151.872 57.2368C151.759 56.7648 152.05 56.2907 152.521 56.1777L152.524 56.1768C152.996 56.0638 153.47 56.3548 153.583 56.8258L154.967 62.6038L154.483 62.9518C152.947 64.0578 151.6 65.4047 150.495 66.9408L150.15 67.4198L144.165 65.9858C143.39 67.4108 142.769 68.9088 142.31 70.4528L147.562 73.6738L147.467 74.2568C147.299 75.2878 147.217 76.2108 147.217 77.0778C147.217 77.9468 147.299 78.8687 147.467 79.8988L147.562 80.4808L142.309 83.7038C142.767 85.2488 143.389 86.7458 144.164 88.1708L150.149 86.7367L150.494 87.2158C150.819 87.6678 151.168 88.1067 151.536 88.5277C151.842 88.8777 151.834 89.4007 151.499 89.7237L151.467 89.7548C151.115 90.0978 150.549 90.0697 150.225 89.6997ZM185.962 90.1908L183.702 89.6498C183.229 89.5368 182.938 89.0618 183.051 88.5888C183.164 88.1168 183.639 87.8248 184.112 87.9378L185.088 88.1717C185.863 86.7467 186.484 85.2487 186.943 83.7048L181.69 80.4818L181.785 79.8998C181.953 78.8698 182.035 77.9468 182.035 77.0788C182.035 76.2108 181.953 75.2888 181.785 74.2578L181.69 73.6748L186.942 70.4538C186.484 68.9088 185.862 67.4118 185.087 65.9868L179.102 67.4208L178.757 66.9417C177.652 65.4057 176.305 64.0588 174.769 62.9528L174.285 62.6048L175.719 56.6198C174.294 55.8448 172.796 55.2228 171.252 54.7638L168.03 60.0168L167.447 59.9228C165.578 59.6198 163.672 59.6198 161.803 59.9228L161.221 60.0168L157.999 54.7648C157.799 54.8238 157.599 54.8868 157.399 54.9518C156.953 55.0978 156.473 54.8578 156.312 54.4178C156.142 53.9548 156.383 53.4328 156.851 53.2798C157.29 53.1358 157.733 53.0047 158.174 52.8877L158.808 52.7188L162.107 58.0978C163.902 57.8488 165.347 57.8488 167.142 58.0978L170.441 52.7188L171.075 52.8867C173.201 53.4527 175.252 54.3048 177.17 55.4168L177.736 55.7458L176.267 61.8758C177.607 62.9038 178.802 64.0978 179.829 65.4378L185.958 63.9697L186.287 64.5358C187.4 66.4538 188.252 68.5048 188.817 70.6308L188.985 71.2638L183.607 74.5618C183.731 75.4578 183.791 76.2868 183.791 77.0798C183.791 77.8738 183.73 78.7018 183.607 79.5978L188.985 82.8968L188.817 83.5297C188.252 85.6557 187.4 87.7067 186.287 89.6247L185.962 90.1908ZM164.381 85.6478C159.913 85.5218 156.187 81.7978 156.059 77.3298C155.93 72.8267 159.295 69.0658 163.638 68.5648C164.163 68.5038 164.628 68.9148 164.628 69.4438C164.628 69.8878 164.297 70.2608 163.856 70.3108C160.026 70.7448 157.149 74.3668 157.951 78.4508C158.472 81.1028 160.609 83.2398 163.262 83.7578C167.615 84.6088 171.441 81.2828 171.441 77.0788C171.441 75.6718 171.007 74.3098 170.208 73.1688C169.956 72.8088 170.024 72.3167 170.354 72.0257C170.749 71.6767 171.365 71.7498 171.666 72.1828C172.661 73.6128 173.201 75.3178 173.201 77.0788C173.199 81.8878 169.22 85.7838 164.381 85.6478Z" fill="#F0F0F0"/>
<path d="M108.312 174.64L106.181 171.166C105.027 171.326 104.082 171.326 102.928 171.166L100.797 174.64L100.388 174.531C99.0144 174.166 97.6894 173.616 96.4504 172.896L96.0844 172.683L96.9884 168.911C97.0614 168.606 97.3684 168.417 97.6734 168.491C97.9784 168.564 98.1664 168.871 98.0934 169.176L97.3884 172.118C98.3094 172.619 99.2764 173.021 100.274 173.317L102.355 169.923L102.732 169.985C103.939 170.182 105.17 170.182 106.377 169.985L106.754 169.923L108.836 173.317C109.834 173.021 110.801 172.619 111.722 172.118L110.795 168.252L111.105 168.029C111.95 167.422 112.703 166.704 113.35 165.892C113.542 165.651 113.884 165.594 114.134 165.774C114.393 165.961 114.454 166.329 114.256 166.58C113.62 167.382 112.89 168.101 112.077 168.724L113.026 172.683L112.66 172.896C111.421 173.615 110.096 174.165 108.722 174.531L108.312 174.64ZM95.2494 167.056C95.0704 166.851 94.8974 166.641 94.7314 166.424L90.7714 167.373L90.5594 167.007C89.8404 165.768 89.2904 164.443 88.9254 163.069L88.8164 162.66L92.2904 160.529C92.2104 159.95 92.1714 159.415 92.1714 158.902C92.1714 158.39 92.2104 157.854 92.2904 157.275L88.8164 155.144L88.9254 154.735C89.2904 153.361 89.8404 152.037 90.5594 150.797L90.7714 150.431L94.7314 151.38C95.3944 150.514 96.1664 149.743 97.0324 149.079L96.3144 146.083C96.2414 145.778 96.4294 145.472 96.7334 145.399L96.7354 145.398C97.0404 145.325 97.3464 145.513 97.4194 145.818L98.3134 149.551L98.0004 149.776C97.0084 150.49 96.1384 151.36 95.4244 152.353L95.2014 152.663L91.3344 151.737C90.8344 152.658 90.4324 153.625 90.1364 154.623L93.5294 156.704L93.4684 157.081C93.3594 157.747 93.3074 158.343 93.3074 158.904C93.3074 159.465 93.3604 160.061 93.4684 160.727L93.5304 161.103L90.1374 163.185C90.4334 164.183 90.8354 165.15 91.3354 166.071L95.2024 165.145L95.4254 165.455C95.6354 165.747 95.8604 166.031 96.0984 166.303C96.2964 166.529 96.2904 166.867 96.0744 167.075L96.0534 167.095C95.8244 167.312 95.4594 167.294 95.2494 167.056ZM118.336 167.372L116.876 167.023C116.571 166.95 116.382 166.643 116.455 166.338C116.528 166.033 116.835 165.845 117.14 165.918L117.771 166.069C118.271 165.148 118.673 164.181 118.969 163.183L115.576 161.101L115.638 160.725C115.746 160.06 115.799 159.463 115.799 158.902C115.799 158.341 115.746 157.745 115.638 157.079L115.577 156.702L118.97 154.621C118.674 153.623 118.272 152.656 117.772 151.735L113.905 152.661L113.682 152.351C112.968 151.359 112.098 150.488 111.106 149.774L110.793 149.549L111.72 145.682C110.799 145.181 109.832 144.78 108.834 144.483L106.753 147.876L106.377 147.815C105.17 147.619 103.939 147.619 102.731 147.815L102.355 147.876L100.274 144.483C100.145 144.521 100.015 144.562 99.8874 144.604C99.5994 144.698 99.2894 144.543 99.1854 144.259C99.0754 143.96 99.2314 143.623 99.5334 143.524C99.8174 143.431 100.103 143.346 100.387 143.271L100.797 143.162L102.928 146.637C104.088 146.476 105.021 146.476 106.181 146.637L108.312 143.162L108.721 143.271C110.094 143.637 111.419 144.187 112.659 144.905L113.025 145.118L112.076 149.078C112.942 149.742 113.713 150.513 114.377 151.379L118.337 150.43L118.549 150.796C119.268 152.035 119.818 153.36 120.183 154.734L120.292 155.143L116.818 157.274C116.898 157.853 116.937 158.388 116.937 158.901C116.937 159.414 116.898 159.949 116.818 160.528L120.292 162.659L120.183 163.068C119.818 164.442 119.268 165.767 118.549 167.006L118.336 167.372ZM104.395 164.437C101.508 164.356 99.1024 161.95 99.0194 159.063C98.9354 156.154 101.109 153.724 103.915 153.4C104.254 153.361 104.554 153.627 104.554 153.968C104.554 154.255 104.34 154.496 104.055 154.528C101.581 154.808 99.7224 157.148 100.24 159.787C100.576 161.5 101.957 162.881 103.671 163.216C106.483 163.766 108.955 161.617 108.955 158.901C108.955 157.992 108.675 157.112 108.159 156.375C107.996 156.143 108.04 155.824 108.253 155.636C108.509 155.41 108.906 155.458 109.101 155.738C109.744 156.662 110.093 157.763 110.093 158.901C110.091 162.008 107.52 164.526 104.395 164.437Z" fill="#E6E6E6"/>
<path d="M249.998 372.064C357.08 372.064 443.887 366.994 443.887 360.741C443.887 354.487 357.08 349.418 249.998 349.418C142.916 349.418 56.1094 354.487 56.1094 360.741C56.1094 366.994 142.916 372.064 249.998 372.064Z" fill="#F5F5F5"/>
<path d="M363.451 90.875H330.89L307.859 354.124H340.42C349.68 354.124 357.872 346.591 358.682 337.331L378.775 107.668C379.585 98.408 372.711 90.875 363.451 90.875Z" fill="#2073D9"/>
<path d="M356.806 90.875H246.607C237.347 90.875 229.155 98.408 228.345 107.668L208.252 337.331C207.442 346.591 214.316 354.124 223.576 354.124H333.775C343.035 354.124 351.227 346.591 352.037 337.331L372.13 107.668C372.94 98.408 366.066 90.875 356.806 90.875Z" fill="#2073D9"/>
<path opacity="0.3" d="M356.806 90.875H246.607C237.347 90.875 229.155 98.408 228.345 107.668L208.252 337.331C207.442 346.591 214.316 354.124 223.576 354.124H333.775C343.035 354.124 351.227 346.591 352.037 337.331L372.13 107.668C372.94 98.408 366.066 90.875 356.806 90.875Z" fill="white"/>
<path opacity="0.4" d="M356.337 96.2559H327.283C325.569 96.2559 323.96 97.3809 323.325 99.0229C320.976 105.093 315.028 109.25 308.692 109.25H291.511C285.175 109.25 279.953 105.092 278.666 99.0229C278.318 97.3809 276.906 96.2569 275.192 96.2569H246.138C239.835 96.2569 234.279 101.366 233.727 107.669L213.634 337.332C213.083 343.635 217.745 348.744 224.048 348.744H334.247C340.55 348.744 346.106 343.635 346.658 337.332L366.751 107.669C367.302 101.366 362.64 96.2559 356.337 96.2559Z" fill="white"/>
<path d="M328.883 221.005H251.759C249.472 221.005 247.781 219.151 247.981 216.865L248.367 212.452C248.567 210.165 250.583 208.312 252.87 208.312H329.994C332.281 208.312 333.972 210.166 333.772 212.452L333.386 216.865C333.186 219.151 331.17 221.005 328.883 221.005Z" fill="white"/>
<path d="M327.219 240.047H250.095C247.808 240.047 246.117 238.193 246.317 235.907L246.703 231.494C246.903 229.207 248.919 227.354 251.206 227.354H328.33C330.617 227.354 332.308 229.208 332.108 231.494L331.722 235.907C331.522 238.193 329.506 240.047 327.219 240.047Z" fill="white"/>
<path opacity="0.1" d="M305.45 100.558C305.228 103.094 302.993 105.149 300.457 105.149C297.921 105.149 296.046 103.094 296.268 100.558C296.49 98.0218 298.725 95.9668 301.261 95.9668C303.796 95.9668 305.672 98.0218 305.45 100.558Z" fill="black"/>
<path opacity="0.1" d="M303.367 100.557C303.246 101.942 302.025 103.065 300.639 103.065C299.254 103.065 298.229 101.942 298.35 100.557C298.471 99.1718 299.692 98.0488 301.078 98.0488C302.464 98.0488 303.488 99.1718 303.367 100.557Z" fill="black"/>
<g opacity="0.8">
<path d="M342.772 108.215C342.029 108.215 341.479 107.613 341.544 106.87L341.759 104.411C341.824 103.668 342.479 103.066 343.222 103.066C343.965 103.066 344.515 103.668 344.45 104.411L344.235 106.87C344.17 107.613 343.515 108.215 342.772 108.215Z" fill="white"/>
<path d="M353.534 108.215C352.791 108.215 352.241 107.613 352.306 106.87L352.811 101.099C352.876 100.356 353.531 99.7539 354.274 99.7539C355.017 99.7539 355.567 100.356 355.502 101.099L354.997 106.87C354.932 107.613 354.277 108.215 353.534 108.215Z" fill="white"/>
<path d="M348.155 108.215C347.412 108.215 346.862 107.613 346.927 106.87L347.287 102.755C347.352 102.012 348.007 101.41 348.75 101.41C349.493 101.41 350.043 102.012 349.978 102.755L349.618 106.87C349.553 107.613 348.898 108.215 348.155 108.215Z" fill="white"/>
</g>
<g opacity="0.8">
<path d="M250.637 108.215H243.882C243.461 108.215 243.15 107.874 243.187 107.453L243.504 103.826C243.541 103.405 243.912 103.064 244.332 103.064H251.087C251.508 103.064 251.819 103.405 251.782 103.826L251.465 107.453C251.428 107.874 251.058 108.215 250.637 108.215Z" fill="white"/>
<path d="M253.768 107.232C253.347 107.232 253.036 106.891 253.073 106.47L253.218 104.811C253.255 104.39 253.626 104.049 254.046 104.049C254.467 104.049 254.778 104.39 254.741 104.811L254.596 106.47C254.56 106.891 254.189 107.232 253.768 107.232Z" fill="white"/>
</g>
<path d="M316.187 191.999C329.644 179.118 330.985 158.681 319.182 146.351C307.38 134.021 286.904 134.468 273.447 147.349C259.991 160.23 258.65 180.667 270.452 192.997C282.255 205.327 302.731 204.88 316.187 191.999Z" fill="white"/>
<path d="M294.921 168.428C286.436 168.428 279.274 171.656 278.661 178.671L277.98 186.456H308.709L309.39 178.671C310.003 171.656 303.407 168.428 294.921 168.428Z" fill="#2073D9"/>
<path d="M295.203 165.221C299.141 165.221 300.957 162.029 301.301 158.091C301.646 154.153 300.388 150.961 296.45 150.961C292.512 150.961 290.696 154.153 290.351 158.091C290.007 162.029 291.265 165.221 295.203 165.221Z" fill="#2073D9"/>
<path d="M325.364 214.432C323.268 214.432 321.499 215.229 321.348 216.962L321.18 218.885H328.77L328.938 216.962C329.089 215.229 327.46 214.432 325.364 214.432Z" fill="#2073D9"/>
<path d="M325.434 213.639C326.407 213.639 326.855 212.85 326.94 211.878C327.025 210.905 326.715 210.117 325.742 210.117C324.769 210.117 324.321 210.906 324.236 211.878C324.151 212.851 324.462 213.639 325.434 213.639Z" fill="#2073D9"/>
<path d="M301.993 259.087H271.984C268.479 259.087 265.886 256.246 266.193 252.74C266.5 249.235 269.59 246.393 273.095 246.393H303.104C306.609 246.393 309.202 249.235 308.895 252.74C308.588 256.246 305.498 259.087 301.993 259.087Z" fill="#2073D9"/>
<path d="M298.372 329.866H266.255C262.551 329.866 259.811 326.863 260.135 323.159L262.184 299.734C262.508 296.03 265.773 293.027 269.477 293.027H301.594C305.298 293.027 308.038 296.03 307.714 299.734L305.665 323.159C305.341 326.863 302.076 329.866 298.372 329.866Z" fill="#2073D9"/>
<g opacity="0.6">
<path d="M288.47 305.651C288.665 303.422 287.016 301.615 284.787 301.615C282.558 301.615 280.593 303.422 280.398 305.651C280.282 306.978 280.829 308.146 281.754 308.881L281.048 316.947C280.932 318.271 281.911 319.344 283.235 319.344C284.559 319.344 285.726 318.271 285.842 316.947L286.548 308.881C287.603 308.146 288.354 306.979 288.47 305.651Z" fill="white"/>
</g>
<path d="M301.88 297.903H297.741L298.755 286.313C299.364 279.348 294.194 273.682 287.229 273.682C280.264 273.682 274.102 279.348 273.493 286.313L272.479 297.903H268.34L269.354 286.313C270.163 277.066 278.344 269.543 287.591 269.543C296.838 269.543 303.703 277.066 302.894 286.313L301.88 297.903Z" fill="#2073D9"/>
<path d="M325.871 232.183L325.968 231.071C326.068 229.934 325.224 229.01 324.087 229.01C322.95 229.01 321.945 229.935 321.846 231.071L321.749 232.183C321.295 232.183 320.895 232.551 320.856 233.005L320.597 235.961C320.557 236.415 320.893 236.783 321.347 236.783H325.467C325.921 236.783 326.321 236.415 326.361 235.961L326.62 233.005C326.66 232.551 326.325 232.183 325.871 232.183ZM324.043 229.518C324.899 229.518 325.534 230.214 325.46 231.07L325.363 232.182H322.258L322.355 231.07C322.43 230.214 323.187 229.518 324.043 229.518Z" fill="#2073D9"/>
<path d="M263.849 233.365L262.411 233.068C262.241 233.033 262.153 232.854 262.224 232.686L262.823 231.27C262.952 230.966 262.582 230.741 262.349 230.982L261.262 232.102C261.133 232.235 260.926 232.235 260.821 232.102L259.93 230.982C259.739 230.742 259.33 230.966 259.405 231.27L259.756 232.686C259.798 232.854 259.679 233.033 259.502 233.068L258.012 233.365C257.692 233.429 257.653 233.878 257.962 233.942L259.4 234.239C259.57 234.274 259.658 234.453 259.587 234.621L258.988 236.037C258.859 236.341 259.229 236.566 259.462 236.325L260.549 235.205C260.678 235.072 260.885 235.072 260.99 235.205L261.881 236.325C262.072 236.566 262.481 236.341 262.406 236.037L262.055 234.621C262.013 234.453 262.132 234.274 262.309 234.239L263.799 233.942C264.119 233.878 264.158 233.428 263.849 233.365Z" fill="#263238"/>
<path d="M273.31 233.365L271.872 233.068C271.702 233.033 271.614 232.854 271.685 232.686L272.284 231.27C272.413 230.966 272.043 230.741 271.81 230.982L270.723 232.102C270.594 232.235 270.388 232.235 270.282 232.102L269.391 230.982C269.2 230.742 268.791 230.966 268.866 231.27L269.217 232.686C269.259 232.854 269.139 233.033 268.963 233.068L267.473 233.365C267.153 233.429 267.114 233.878 267.422 233.942L268.86 234.239C269.03 234.274 269.118 234.453 269.047 234.621L268.448 236.037C268.319 236.341 268.689 236.566 268.922 236.325L270.009 235.205C270.138 235.072 270.344 235.072 270.45 235.205L271.341 236.325C271.532 236.566 271.941 236.341 271.866 236.037L271.515 234.621C271.473 234.453 271.593 234.274 271.769 234.239L273.259 233.942C273.58 233.878 273.619 233.428 273.31 233.365Z" fill="#263238"/>
<path d="M282.775 233.365L281.337 233.068C281.167 233.033 281.079 232.854 281.15 232.686L281.749 231.27C281.878 230.966 281.508 230.741 281.275 230.982L280.188 232.102C280.059 232.235 279.852 232.235 279.747 232.102L278.856 230.982C278.665 230.742 278.256 230.966 278.331 231.27L278.682 232.686C278.724 232.854 278.605 233.033 278.428 233.068L276.938 233.365C276.618 233.429 276.579 233.878 276.887 233.942L278.325 234.239C278.495 234.274 278.583 234.453 278.512 234.621L277.913 236.037C277.784 236.341 278.154 236.566 278.387 236.325L279.474 235.205C279.603 235.072 279.81 235.072 279.915 235.205L280.806 236.325C280.997 236.566 281.406 236.341 281.331 236.037L280.98 234.621C280.938 234.453 281.057 234.274 281.234 234.239L282.724 233.942C283.045 233.878 283.084 233.428 282.775 233.365Z" fill="#263238"/>
<path d="M292.24 233.365L290.802 233.068C290.632 233.033 290.544 232.854 290.615 232.686L291.214 231.27C291.343 230.966 290.973 230.741 290.74 230.982L289.653 232.102C289.524 232.235 289.317 232.235 289.212 232.102L288.321 230.982C288.13 230.742 287.721 230.966 287.796 231.27L288.147 232.686C288.189 232.854 288.07 233.033 287.893 233.068L286.403 233.365C286.083 233.429 286.044 233.878 286.353 233.942L287.791 234.239C287.961 234.274 288.049 234.453 287.978 234.621L287.379 236.037C287.25 236.341 287.62 236.566 287.853 236.325L288.94 235.205C289.069 235.072 289.276 235.072 289.381 235.205L290.272 236.325C290.463 236.566 290.872 236.341 290.797 236.037L290.446 234.621C290.404 234.453 290.523 234.274 290.7 234.239L292.19 233.942C292.509 233.878 292.549 233.428 292.24 233.365Z" fill="#263238"/>
<path d="M301.701 233.365L300.263 233.068C300.093 233.033 300.005 232.854 300.076 232.686L300.675 231.27C300.804 230.966 300.434 230.741 300.201 230.982L299.114 232.102C298.985 232.235 298.778 232.235 298.673 232.102L297.782 230.982C297.591 230.742 297.182 230.966 297.257 231.27L297.608 232.686C297.65 232.854 297.531 233.033 297.354 233.068L295.864 233.365C295.544 233.429 295.505 233.878 295.813 233.942L297.251 234.239C297.421 234.274 297.509 234.453 297.438 234.621L296.839 236.037C296.711 236.341 297.08 236.566 297.313 236.325L298.4 235.205C298.529 235.072 298.735 235.072 298.841 235.205L299.732 236.325C299.923 236.566 300.332 236.341 300.257 236.037L299.906 234.621C299.864 234.453 299.984 234.274 300.16 234.239L301.65 233.942C301.97 233.878 302.01 233.428 301.701 233.365Z" fill="#263238"/>
<path d="M311.166 233.365L309.728 233.068C309.558 233.033 309.47 232.854 309.541 232.686L310.14 231.27C310.268 230.966 309.899 230.741 309.666 230.982L308.579 232.102C308.45 232.235 308.244 232.235 308.138 232.102L307.247 230.982C307.056 230.742 306.647 230.966 306.722 231.27L307.073 232.686C307.115 232.854 306.995 233.033 306.819 233.068L305.329 233.365C305.009 233.429 304.97 233.878 305.278 233.942L306.716 234.239C306.886 234.274 306.974 234.453 306.903 234.621L306.304 236.037C306.175 236.341 306.545 236.566 306.778 236.325L307.865 235.205C307.994 235.072 308.201 235.072 308.306 235.205L309.197 236.325C309.388 236.566 309.797 236.341 309.722 236.037L309.371 234.621C309.329 234.453 309.448 234.274 309.625 234.239L311.115 233.942C311.435 233.878 311.475 233.428 311.166 233.365Z" fill="#263238"/>
<path d="M288.352 212.66H270.584C269.48 212.66 268.507 213.555 268.41 214.659C268.313 215.763 269.13 216.658 270.234 216.658H288.002C289.106 216.658 290.079 215.763 290.176 214.659C290.273 213.555 289.456 212.66 288.352 212.66Z" fill="#263238"/>
<path d="M306.39 212.66H296.08C294.976 212.66 294.003 213.555 293.906 214.659C293.809 215.763 294.626 216.658 295.73 216.658H306.04C307.144 216.658 308.117 215.763 308.214 214.659C308.311 213.555 307.494 212.66 306.39 212.66Z" fill="#263238"/>
<path d="M320.002 303.311C313.303 305.986 307.43 309.888 303.41 314.325C301.053 312.319 297.702 310.926 293.685 310.289L293.214 310.214L293.008 312.573L293.271 312.672C297.236 314.17 300.463 316.828 302.604 320.357L302.94 320.912L303.312 320.317C307.432 313.721 313.44 308.195 320.228 304.757L320.458 304.64L320.595 303.072L320.002 303.311Z" fill="#263238"/>
<path opacity="0.2" d="M230.642 106.422C229.393 108.619 228.569 111.07 228.341 113.667L213.449 283.888H259.526L268.784 248.395L265.737 212.902L274.995 177.409L271.948 141.916L281.206 106.423H230.642V106.422Z" fill="black"/>
<path d="M267.95 131.916L277.207 96.4219H160.683L151.425 131.916L154.473 167.409L145.215 202.902L148.262 238.396L139.004 273.889H255.528L264.786 238.396L261.739 202.902L270.996 167.409L267.95 131.916Z" fill="#2073D9"/>
<path opacity="0.7" d="M267.95 131.916L277.207 96.4219H160.683L151.425 131.916L154.473 167.409L145.215 202.902L148.262 238.396L139.004 273.889H255.528L264.786 238.396L261.739 202.902L270.996 167.409L267.95 131.916Z" fill="white"/>
<path opacity="0.5" d="M267.95 131.916H151.426L160.684 96.4219H277.208L267.95 131.916Z" fill="white"/>
<path opacity="0.5" d="M261.739 202.901H145.215L154.473 167.408H270.997L261.739 202.901Z" fill="white"/>
<path opacity="0.5" d="M255.528 273.889H139.004L148.262 238.396H264.786L255.528 273.889Z" fill="white"/>
<path opacity="0.2" d="M252.357 146.747C251.356 147.06 250.074 147.248 248.677 147.248C246.62 147.248 244.812 146.841 243.784 146.228C243.502 146.059 243.192 145.975 242.882 145.975C242.594 145.975 242.307 146.056 242.041 146.201C242.021 146.212 241.999 146.216 241.98 146.228C241.969 146.235 241.955 146.24 241.944 146.247C241.563 146.469 241.083 146.664 240.523 146.821C239.562 147.09 238.374 147.249 237.088 147.249C236.739 147.249 236.396 147.237 236.064 147.215C235.067 147.147 234.158 146.983 233.408 146.749C233.277 146.708 233.145 146.684 233.016 146.675C232.109 146.615 231.294 147.311 231.294 148.273V149.357H186.003C182.498 149.357 179.656 152.198 179.656 155.704V162.1C179.656 165.605 182.498 168.447 186.003 168.447H237.53C237.644 168.447 237.754 168.436 237.867 168.43C238.423 168.89 239.002 169.349 239.615 169.814C240.349 170.37 241.122 170.934 241.932 171.522C242.496 171.931 243.27 171.931 243.834 171.522C250.313 166.823 254.473 163.582 254.473 154.677V148.274C254.472 147.173 253.407 146.419 252.357 146.747Z" fill="black"/>
<path d="M236.546 164.922H185.019C181.514 164.922 178.672 162.081 178.672 158.575V152.179C178.672 148.674 181.513 145.832 185.019 145.832H236.546C240.051 145.832 242.893 148.673 242.893 152.179V158.575C242.893 162.08 240.051 164.922 236.546 164.922Z" fill="#2073D9"/>
<path d="M247.694 143.724C245.637 143.724 243.83 143.317 242.801 142.704C242.236 142.367 241.562 142.367 240.997 142.704C239.969 143.317 238.162 143.724 236.104 143.724C234.706 143.724 233.425 143.536 232.424 143.224C231.375 142.896 230.309 143.649 230.309 144.749V151.152C230.309 160.057 234.469 163.298 240.948 167.997C241.512 168.406 242.286 168.406 242.85 167.997C249.329 163.298 253.489 160.057 253.489 151.152V144.749C253.489 143.649 252.424 142.896 251.374 143.224C250.373 143.536 249.092 143.724 247.694 143.724Z" fill="#2073D9"/>
<path opacity="0.3" d="M247.694 143.724C245.637 143.724 243.83 143.317 242.801 142.704C242.236 142.367 241.562 142.367 240.997 142.704C239.969 143.317 238.162 143.724 236.104 143.724C234.706 143.724 233.425 143.536 232.424 143.224C231.375 142.896 230.309 143.649 230.309 144.749V151.152C230.309 160.057 234.469 163.298 240.948 167.997C241.512 168.406 242.286 168.406 242.85 167.997C249.329 163.298 253.489 160.057 253.489 151.152V144.749C253.489 143.649 252.424 142.896 251.374 143.224C250.373 143.536 249.092 143.724 247.694 143.724Z" fill="white"/>
<path opacity="0.2" d="M240.997 142.704C239.969 143.317 238.162 143.724 236.104 143.724C234.706 143.724 233.425 143.536 232.424 143.224C231.375 142.896 230.309 143.649 230.309 144.748V151.152C230.309 160.057 234.469 163.298 240.948 167.997C241.23 168.201 241.564 168.304 241.899 168.304V142.451C241.589 142.451 241.279 142.535 240.997 142.704Z" fill="white"/>
<path d="M251.187 149.404C247 151.136 243.417 153.663 241.066 156.537C239.426 155.238 237.177 154.336 234.539 153.923L234.23 153.875V155.403L234.406 155.467C237.059 156.437 239.299 158.159 240.886 160.444L241.135 160.803L241.342 160.418C243.637 156.146 247.215 152.567 251.416 150.341L251.559 150.265V149.25L251.187 149.404Z" fill="#263238"/>
<path d="M275.149 106.403H270.728C268.276 106.403 266.463 104.416 266.677 101.964L267.064 97.5425C267.279 95.0905 269.44 93.1035 271.892 93.1035H276.313C278.765 93.1035 280.578 95.0915 280.364 97.5425L279.977 101.964C279.762 104.416 277.601 106.403 275.149 106.403Z" fill="#2073D9"/>
<path d="M276.987 97.5344L276.028 96.4824L273.613 98.7024L271.587 96.4824L270.443 97.5344L272.469 99.7544L270.055 101.974L271.015 103.026L273.429 100.806L275.455 103.026L276.599 101.974L274.573 99.7544L276.987 97.5344Z" fill="white"/>
<path d="M176.372 144.543C178.935 147.33 181.384 150.217 183.802 153.131C186.223 156.042 188.584 159.005 190.916 161.994C191.018 162.124 190.977 162.071 191.001 162.11C191.012 162.127 191.014 162.155 191.028 162.169C191.054 162.198 191.068 162.246 191.099 162.272C191.145 162.346 191.212 162.399 191.279 162.469C191.421 162.596 191.615 162.693 191.831 162.733C191.938 162.749 192.051 162.765 192.166 162.753C192.228 162.761 192.283 162.742 192.348 162.74C192.382 162.741 192.407 162.723 192.44 162.719C192.491 162.697 192.459 162.742 192.597 162.66L195.102 161.302C198.462 159.523 201.849 157.784 205.352 156.223L208.28 159.849C205.458 162.446 202.519 165.694 199.553 168.074L197.313 169.835C197.256 169.887 197.015 170.045 196.864 170.146C196.691 170.257 196.522 170.377 196.339 170.475C195.976 170.675 195.61 170.875 195.221 171.029C194.453 171.361 193.633 171.572 192.802 171.7C191.135 171.948 189.403 171.78 187.786 171.201C186.98 170.911 186.199 170.524 185.488 170.03C185.124 169.794 184.791 169.517 184.459 169.238C184.292 169.099 184.143 168.944 183.987 168.793L183.589 168.39C180.943 165.676 178.326 162.936 175.768 160.144C173.208 157.354 170.678 154.539 168.262 151.623L176.372 144.543Z" fill="#B55B52"/>
<path d="M203.988 158.43L206.319 150.943L212.455 154.001C212.455 154.001 211.561 159.464 207.094 160.411L203.988 158.43Z" fill="#B55B52"/>
<path d="M208.781 148.867L214.315 150.391L212.456 154.001L206.32 150.943L208.781 148.867Z" fill="#B55B52"/>
<path d="M144.093 146.582C143.425 149.763 142.609 152.908 141.754 156.044C140.903 159.181 139.974 162.299 139.008 165.408L138.648 166.574L138.468 167.157C138.43 167.284 138.405 167.316 138.371 167.401C138.261 167.696 138.195 168.016 138.182 168.352C138.165 169.018 138.323 169.759 138.759 170.403C138.795 170.507 139.14 170.869 139.409 171.161L140.239 172.063L141.876 173.896C142.954 175.133 144.028 176.374 145.048 177.679L141.563 181.713C140.124 180.894 138.74 180.011 137.359 179.124L135.308 177.771L134.294 177.08C133.949 176.84 133.672 176.679 133.12 176.222C131.218 174.609 129.797 172.319 129.276 169.776C129.01 168.507 128.945 167.184 129.093 165.874C129.132 165.56 129.191 165.194 129.239 164.925L129.345 164.324L129.557 163.122C130.118 159.915 130.716 156.717 131.391 153.537C132.063 150.357 132.774 147.186 133.632 144.051L144.093 146.582Z" fill="#B55B52"/>
<path d="M141.625 177.393L145.751 175.283L147.571 182.296C147.571 182.296 144.26 183.565 141.697 181.935L141.625 177.393Z" fill="#B55B52"/>
<path d="M151.452 173.041L151.639 179.474L147.032 182.487L145.434 175.42L151.452 173.041Z" fill="#B55B52"/>
<path d="M164.942 113.517C165.043 114.013 165.387 114.361 165.711 114.295C166.035 114.229 166.216 113.774 166.115 113.278C166.014 112.782 165.67 112.434 165.346 112.5C165.023 112.566 164.842 113.021 164.942 113.517Z" fill="#263238"/>
<path d="M165.344 114.371C165.344 114.371 167.052 117.001 168.573 118.128C167.862 119.125 166.296 119.054 166.296 119.054L165.344 114.371Z" fill="#A02724"/>
<path d="M162.571 111.133C162.499 111.133 162.426 111.107 162.369 111.054C162.249 110.943 162.241 110.755 162.353 110.634C163.468 109.427 164.821 109.642 164.88 109.651C165.042 109.679 165.15 109.832 165.123 109.994C165.095 110.155 164.94 110.263 164.782 110.237C164.737 110.23 163.679 110.075 162.79 111.037C162.731 111.101 162.651 111.133 162.571 111.133Z" fill="#263238"/>
<path d="M150.522 120.488C151.625 125.075 152.726 133.48 148.789 136.54C148.789 136.54 150.327 141.193 160.784 141.193C172.282 141.193 166.279 138.196 166.279 138.196C160.004 136.975 160.165 131.524 161.258 127.96L150.522 120.488Z" fill="#B55B52"/>
<path d="M147.563 137.391C146.878 136.116 146.123 134.658 147.684 134.201C149.401 133.698 160.432 132.766 163.672 133.71C162.676 135.481 164.362 137.658 164.362 137.658L147.563 137.391Z" fill="#263238"/>
<path d="M156.695 351.968H163.91L164.628 337.447H157.414L156.695 351.968Z" fill="#B55B52"/>
<path d="M110.914 349.968L118.221 350.354L122.662 336.049L115.354 335.662L110.914 349.968Z" fill="#B55B52"/>
<path d="M117.998 349.775L111.113 348.284C110.863 348.23 110.608 348.357 110.501 348.59L108.111 353.775C107.863 354.313 108.191 354.944 108.772 355.059C111.184 355.538 112.383 355.65 115.41 356.305C117.273 356.708 121.477 357.733 124.05 358.29C126.566 358.835 127.509 356.376 126.506 355.918C122.008 353.863 120.129 352.053 118.911 350.367C118.692 350.064 118.365 349.855 117.998 349.775Z" fill="#263238"/>
<path d="M163.529 351.242H156.682C156.426 351.242 156.204 351.42 156.148 351.67L154.909 357.243C154.781 357.821 155.219 358.368 155.811 358.358C158.281 358.316 161.85 358.171 164.955 358.171C168.585 358.171 171.72 358.369 175.977 358.369C178.551 358.369 179.265 355.767 178.188 355.531C173.283 354.458 169.278 354.343 165.039 351.73C164.579 351.446 164.07 351.242 163.529 351.242Z" fill="#263238"/>
<path d="M135.726 138.661C130.281 141.25 128.801 156.945 128.801 156.945L142.271 163.169C142.271 163.169 145.614 158.244 145.87 150.5C146.138 142.387 141.293 136.014 135.726 138.661Z" fill="#263238"/>
<path opacity="0.4" d="M143.032 148.34C140.6 152.115 140.83 157.956 141.672 162.892L142.267 163.171C142.267 163.171 145.614 158.24 145.871 150.498C145.886 150.014 145.884 149.533 145.867 149.065L143.032 148.34Z" fill="black"/>
<path d="M173.316 138.282C173.316 138.282 179.99 145.82 173.687 192.477C163.582 192.477 145.067 192.477 140.15 192.477C139.919 187.329 143.154 162.216 138.188 137.959C138.188 137.959 143.937 136.805 149.415 136.541C153.7 136.335 159.904 136.198 163.671 136.541C168.638 136.995 173.316 138.282 173.316 138.282Z" fill="#2073D9"/>
<path opacity="0.6" d="M173.316 138.282C173.316 138.282 179.99 145.82 173.687 192.477C163.582 192.477 145.067 192.477 140.15 192.477C139.919 187.329 143.154 162.216 138.188 137.959C138.188 137.959 143.937 136.805 149.415 136.541C153.7 136.335 159.904 136.198 163.671 136.541C168.638 136.995 173.316 138.282 173.316 138.282Z" fill="#FAFAFA"/>
<path opacity="0.2" d="M176.244 152.542L176.116 152.431L169.446 148.867C168.768 159.137 173.359 165.575 176.09 168.391C176.466 161.811 176.457 156.621 176.244 152.542Z" fill="black"/>
<path opacity="0.2" d="M164.63 337.451L164.261 344.936H157.043L157.412 337.451H164.63Z" fill="black"/>
<path opacity="0.2" d="M115.352 335.666L122.662 336.053L120.369 343.426L113.059 343.04L115.352 335.666Z" fill="black"/>
<path d="M148.202 115.826C149.813 121.837 150.45 125.437 154.16 127.936C159.739 131.695 166.686 127.381 166.903 121.01C167.099 115.276 164.431 106.41 157.981 105.198C151.626 104.005 146.591 109.815 148.202 115.826Z" fill="#B55B52"/>
<path d="M161.786 192.477C161.786 192.477 154.67 240.394 150.764 258.346C146.486 278.004 123.548 343.044 123.548 343.044L112.324 340.614C112.324 340.614 126.708 287.611 130.298 260.128C131.699 249.403 133.39 232.115 135.53 217.701C137.602 203.742 140.146 192.477 140.146 192.477H161.786Z" fill="#263238"/>
<path d="M126.236 339.295C126.284 339.305 124.144 343.354 124.144 343.354L111.516 340.62L112.581 336.824L126.236 339.295Z" fill="#2073D9"/>
<path opacity="0.6" d="M126.236 339.295C126.284 339.305 124.144 343.354 124.144 343.354L111.516 340.62L112.581 336.824L126.236 339.295Z" fill="white"/>
<path opacity="0.6" d="M157.291 209.548C149.063 211.161 149.934 241.844 150.924 257.626C153.297 246.471 156.77 225.005 159.143 209.77C158.597 209.497 157.982 209.412 157.291 209.548Z" fill="black"/>
<path d="M173.685 192.477C173.685 192.477 177.032 239.357 176.35 258.478C175.641 278.366 166.211 343.487 166.211 343.487H155.589C155.589 343.487 155.199 279.528 154.727 259.996C154.212 238.702 151.641 192.477 151.641 192.477H173.685Z" fill="#263238"/>
<path d="M168.256 339.256C168.305 339.256 167.657 343.666 167.657 343.666H154.736L154.387 339.73L168.256 339.256Z" fill="#2073D9"/>
<path opacity="0.6" d="M168.256 339.256C168.305 339.256 167.657 343.666 167.657 343.666H154.736L154.387 339.73L168.256 339.256Z" fill="white"/>
<path d="M169.398 147.063C169.398 159.644 176.093 164.824 176.093 164.824L186.975 154.186C186.975 154.186 183.275 147.811 178.187 141.959C171.9 134.729 169.398 138.973 169.398 147.063Z" fill="#263238"/>
<path opacity="0.2" d="M166.521 123.287C166.245 124.058 165.52 125.365 163.699 125.886C161.043 126.646 161.008 128.897 161.008 128.897L161.041 128.939C163.575 128.102 165.685 126.008 166.521 123.287Z" fill="black"/>
<path d="M163.699 103.88C165.941 101.053 162.492 100.918 162.492 100.918C163.388 97.5426 159.354 99.3596 159.354 99.3596C156.932 96.0216 155.566 100.084 155.566 100.084C153.054 97.2556 152.592 101.878 152.592 101.878C150.073 98.2906 148.79 103.465 148.79 103.465C146.47 99.7396 145.05 104.593 145.05 104.593C140.26 102.878 142.537 107.856 142.537 107.856C138.448 107.971 141.728 111.134 141.728 111.134C136.83 111.146 141.149 113.951 141.149 113.951C137.259 116.503 142.142 117.19 142.142 117.19C138.968 122.153 144.418 120.312 144.418 120.312C142.21 125.224 147.106 123.06 147.106 123.06C146.788 127.8 149.526 126.51 150.842 125.632C151.096 126.587 151.57 127.598 152.45 127.713C154.158 127.936 154.49 124.712 154.49 124.712C154.49 124.712 156.075 125.945 157.404 125.277C158.733 124.609 158.232 122.918 158.232 122.918C158.232 122.918 159.249 123.677 160.181 122.953C160.751 122.51 160.754 119.327 160.027 118.208L162.63 117.189C162.63 117.189 164.562 116.917 163.699 114.37C162.837 111.824 163.568 109.813 163.568 109.813C166.506 108.436 164.096 106.78 164.096 106.78C167.493 104.579 163.699 103.88 163.699 103.88Z" fill="#263238"/>
<path d="M158.425 116.078C158.834 117.656 159.871 119.012 160.955 119.819C162.587 121.033 163.805 119.838 163.689 117.992C163.585 116.33 162.61 113.696 160.81 113.203C159.038 112.717 157.958 114.274 158.425 116.078Z" fill="#B55B52"/>
</svg>
