<svg width="53" height="61" viewBox="0 0 53 61" fill="none" xmlns="http://www.w3.org/2000/svg">
<path d="M33.3799 8.9375C33.3799 10.8437 32.6655 12.6719 31.394 14.0198C30.1224 15.3677 28.3979 16.125 26.5996 16.125C24.8014 16.125 23.0768 15.3677 21.8052 14.0198C20.5337 12.6719 19.8193 10.8437 19.8193 8.9375C19.8193 7.03126 20.5337 5.20309 21.8052 3.85517C23.0768 2.50725 24.8014 1.75 26.5996 1.75C28.3979 1.75 30.1224 2.50725 31.394 3.85517C32.6655 5.20309 33.3799 7.03126 33.3799 8.9375Z" stroke="#17D1E6" stroke-width="2.5"/>
<path d="M51.0084 44.875L47.8678 43.7538C47.2516 43.5338 46.666 43.2273 46.1266 42.8424L45.8527 42.644C44.9334 41.9846 44.1809 41.0961 43.6612 40.0565C43.1415 39.0168 42.8706 37.8578 42.8721 36.6812C42.8721 29.6749 38.1422 23.6949 31.6901 22.542L29.2763 22.1107C27.9555 21.875 25.2434 21.875 23.9226 22.1107L21.5061 22.542C15.054 23.6949 10.3268 29.6749 10.3268 36.6812C10.3283 37.8578 10.0573 39.0168 9.53762 40.0565C9.01793 41.0961 8.26542 41.9846 7.34615 42.644L7.07494 42.8424C6.53252 43.2276 5.9467 43.5324 5.33105 43.7538L2.19043 44.875" stroke="#17D1E6" stroke-width="2.5" stroke-linecap="round" stroke-linejoin="round"/>
<path d="M19.8192 42L17.3105 45.5449C16.9119 46.1084 16.7139 46.393 16.4861 46.6403C15.9302 47.2562 15.2521 47.7335 14.5008 48.0375C14.197 48.1611 13.877 48.2474 13.2261 48.4199L8.36329 49.7079C7.28292 49.9962 6.33913 50.693 5.70936 51.6672C5.0796 52.6415 4.80724 53.826 4.9435 54.9981C5.07976 56.1703 5.61525 57.2493 6.44928 58.0323C7.28332 58.8153 8.35845 59.2483 9.47254 59.25H11.3249C15.9599 59.25 20.4647 57.6572 24.1722 54.7104L29.3116 50.625M33.3798 42L35.3515 44.7859C36.2818 46.1026 36.7482 46.761 37.353 47.2469C37.5348 47.3906 37.7246 47.5286 37.9226 47.6494C38.5789 48.0519 39.3329 48.2502 40.8381 48.6499L44.8358 49.7079C45.9161 49.9962 46.8599 50.693 47.4897 51.6672C48.1194 52.6415 48.3918 53.826 48.2555 54.9981C48.1193 56.1703 47.5838 57.2493 46.7498 58.0323C45.9157 58.8153 44.8406 59.2483 43.7265 59.25H41.1853C39.6583 59.25 38.8962 59.25 38.1396 59.204C35.9064 59.0715 33.6974 58.6466 31.5627 57.939C30.8386 57.7004 30.1253 57.4186 28.6987 56.8494L23.8874 54.9375" stroke="#17D1E6" stroke-width="2.5" stroke-linecap="round" stroke-linejoin="round"/>
</svg>
