<svg width="72" height="66" viewBox="0 0 72 66" fill="none" xmlns="http://www.w3.org/2000/svg">
<path d="M50.1377 41.8206C47.5496 41.8206 45.3435 40.8399 43.5196 38.8787C41.6956 36.9174 40.7837 34.5382 40.7837 31.7412C40.7837 28.9441 41.6901 26.5589 43.5029 24.5855C45.3157 22.6122 47.5147 21.6255 50.1 21.6255C52.6854 21.6255 54.89 22.6062 56.7139 24.5674C58.5379 26.5287 59.4499 28.9064 59.4499 31.7004C59.4499 34.4945 58.5435 36.8812 56.7307 38.8606C54.9179 40.8399 52.7202 41.8266 50.1377 41.8206ZM28.2377 65.4916V60.3772C28.2377 59.3905 28.465 58.4521 28.9196 57.562C29.3742 56.6719 29.9878 55.9553 30.7603 55.4121C33.6859 53.6078 36.7537 52.2258 39.9637 51.2663C43.171 50.3068 46.5567 49.8271 50.121 49.8271C53.6796 49.8271 57.0639 50.3068 60.274 51.2663C63.484 52.2258 66.5518 53.6078 69.4774 55.4121C70.2471 55.9522 70.8607 56.6689 71.3181 57.562C71.7755 58.4551 72.0028 59.3935 72 60.3772V65.4916H28.2377ZM32.5633 59.5761V60.9656H67.6744V59.5761C64.9133 57.8924 62.0519 56.601 59.0901 55.7018C56.1283 54.8026 53.1386 54.3531 50.121 54.3531C47.1006 54.3531 44.1094 54.8026 41.1476 55.7018C38.1886 56.601 35.3272 57.8924 32.5633 59.5761ZM50.121 37.2946C51.5182 37.2946 52.7258 36.7439 53.7438 35.6426C54.7617 34.5412 55.2693 33.2347 55.2665 31.7231C55.2637 30.2114 54.7561 28.9033 53.7438 27.799C52.7314 26.6947 51.5238 26.1455 50.121 26.1515C48.7181 26.1576 47.5091 26.7067 46.494 27.799C45.4788 28.8913 44.9712 30.1993 44.9712 31.7231C44.9712 33.2468 45.4788 34.5533 46.494 35.6426C47.5091 36.7318 48.7181 37.2825 50.121 37.2946ZM0 41.2955V36.7695H29.2836V41.2955H0ZM0 5.08753V0.561523H46.0171V5.08753H0ZM32.6763 23.1915H0V18.6655H35.0734C34.5797 19.3686 34.1307 20.0822 33.7263 20.8063C33.3219 21.5305 32.9691 22.3256 32.6763 23.1915Z" fill="#04C1D6"/>
</svg>
