<svg width="54" height="65" viewBox="0 0 54 65" fill="none" xmlns="http://www.w3.org/2000/svg">
<path d="M21.0833 2.70801V29.7913L29.2083 24.3747L37.3333 29.7913V2.70801M8.89583 48.7497C7.1001 48.7497 5.37791 49.463 4.10813 50.7328C2.83835 52.0026 2.125 53.7248 2.125 55.5205M2.125 55.5205C2.125 57.3162 2.83835 59.0384 4.10813 60.3082C5.37791 61.578 7.1001 62.2913 8.89583 62.2913H53.5833M2.125 55.5205V9.47884C2.125 7.6831 2.83835 5.96092 4.10813 4.69114C5.37791 3.42136 7.1001 2.70801 8.89583 2.70801H50.875V48.7686H8.87417M49.5208 48.7497C47.7251 48.7497 46.0029 49.463 44.7331 50.7328C43.4634 52.0026 42.75 53.7248 42.75 55.5205C42.75 57.3162 43.4634 59.0384 44.7331 60.3082C46.0029 61.578 47.7251 62.2913 49.5208 62.2913" stroke="#04C1D6" stroke-width="4"/>
</svg>
