<svg width="111" height="129" viewBox="0 0 111 129" fill="none" xmlns="http://www.w3.org/2000/svg">
<path d="M25.4746 22.54H32.0102V20.5649H25.4746V22.54Z" fill="#8BB8DC"/>
<path d="M13.7061 91.005C-1.48782 94.2702 0.678477 123.044 0 149.543L2.39185 159.47L21.5052 158.621C20.1578 157.849 18.7539 154.825 19.608 144.867C21.0919 127.555 20.6589 120.639 20.6589 120.639L37.9863 81.2199C37.9863 81.2199 19.4905 89.7634 13.7061 91.005Z" fill="white"/>
<path d="M18.2568 147.619L20.3554 147.122L19.9358 120.314L18.2568 147.619Z" fill="#E6E6E7"/>
<path d="M97.0788 88.1988C91.295 86.9573 72.7969 78.4146 72.7969 78.4146L90.1255 117.833C90.1255 117.833 90.5335 124.749 92.0182 142.061C92.856 151.818 92.5909 154.918 92.2015 155.766L108.393 156.664L110.784 146.737C110.104 120.238 112.27 91.4649 97.0788 88.1988Z" fill="white"/>
<path d="M44.3798 86.2641L19.0861 95.7725L19.0576 187.201L92.919 187.228L92.952 95.7981L69.0792 82.9797L44.3798 86.2641Z" fill="#D34A4A"/>
<path d="M53.4732 97.3931L49.6025 151.769L56.6341 164.081L63.9041 152.313L59.211 97.3942L53.4732 97.3931Z" fill="#3D3D77"/>
<path d="M56.2608 84.9639C56.2608 84.9639 50.5272 85.0799 49.1303 87.6525C46.0417 93.335 53.4733 98.2036 53.4733 98.2036H59.2069C59.2069 98.2036 65.3522 93.7904 63.6159 89.5197C62.2136 86.0789 56.2608 84.9639 56.2608 84.9639Z" fill="#262260"/>
<path d="M36.9346 82.8712L45.8042 95.1235L56.5809 84.5086L38.5602 72.7573L36.9346 82.8712Z" fill="#EA5E5E"/>
<path d="M55.9365 84.5053L66.7111 95.1299L74.7768 83.6957L73.965 72.77L55.9365 84.5053Z" fill="#EA5E5E"/>
<path d="M38.5558 82.0627L20.235 90.3327L16.6442 112.455C16.6442 112.455 15.3059 175.553 14.8555 213H57.2373L58.4343 155.561L38.5558 82.0627Z" fill="white"/>
<path d="M33.1203 82.0596L28.3438 101.72L36.0672 109.297L35.3627 115.247L58.4345 155.561L37.5341 77.8623L33.1203 82.0596Z" fill="#F0F1F1"/>
<path d="M92.1136 90.3539L73.7946 82.0754L53.8701 155.561L53.901 213H97.4365C97.0024 175.55 95.6884 112.482 95.6884 112.482L92.1136 90.3539Z" fill="white"/>
<path d="M79.2324 82.0766L74.8245 77.8751L53.8701 155.561L79.4016 115.259L76.2672 109.308L83.9935 101.739L79.2324 82.0766Z" fill="#F0F1F1"/>
<path d="M90.876 147.122L92.9762 147.619L91.2962 120.314L90.876 147.122Z" fill="#D0D2D3"/>
<path d="M28.3685 148.032C26.3372 148.338 23.791 148.258 22.912 147.431C22.3336 147.012 21.6925 145.261 21.4054 142.861C20.7591 138.07 20.9705 130.802 20.9047 125.079L19.2266 125.098C19.2947 130.78 19.0693 138.057 19.7375 143.082C20.1072 145.61 20.5664 147.59 21.8255 148.717C23.6375 150.158 26.4017 149.956 28.591 149.699C30.3725 149.457 31.7642 149.074 31.7872 149.065L31.3399 147.45C31.3391 147.45 30.0278 147.812 28.3685 148.032Z" fill="#BBBDBF"/>
<path d="M45.0151 121.645L43.3894 122.07C44.8332 127.608 46.943 134.565 47.5845 139.355C47.9314 141.743 47.7792 143.604 47.3345 144.163C46.7025 145.189 44.2672 145.941 42.2233 146.178C40.5669 146.399 39.2088 146.39 39.2045 146.396L39.2021 148.073C39.2243 148.073 40.6654 148.078 42.4478 147.843C44.6278 147.515 47.3515 146.983 48.7198 145.115C49.6347 143.698 49.5603 141.67 49.2485 139.133C48.5729 134.106 46.4429 127.146 45.0151 121.645Z" fill="#BBBDBF"/>
<path d="M29.9774 107.259C22.4634 108.334 17.8783 116.861 19.0967 126.07L21.2704 125.778H21.2676C20.7099 121.593 21.494 117.648 23.1628 114.703C24.841 111.75 27.3382 109.824 30.2679 109.432C33.1973 109.04 36.1121 110.242 38.5064 112.65C40.8883 115.053 42.6873 118.651 43.2458 122.835L45.4205 122.545C44.1736 113.34 37.5089 106.319 29.9774 107.259Z" fill="#57585A"/>
<path d="M32.1262 78.61C30.1005 81.2444 28.3455 84.6234 27.6718 88.1951C27.4062 89.6112 27.3018 91.0603 27.3018 92.4743C27.3077 98.1472 28.86 108.916 28.8754 108.971L30.978 108.357H30.9745C30.9745 108.35 30.9211 107.169 30.5228 105.267C30.1266 103.363 29.4011 95.1075 29.4039 92.4743C29.4011 91.1646 29.4996 89.8399 29.7348 88.5813C30.3226 85.432 31.9319 82.2998 33.789 79.8921C35.6232 77.478 37.7931 75.8193 39.0414 75.5416L38.532 73.5052C36.4153 74.067 34.179 75.9821 32.1262 78.61Z" fill="#57585A"/>
<path d="M80.3793 78.6101C78.328 75.9811 76.0895 74.0671 73.9754 73.5053L73.4658 75.5438C74.7117 75.8226 76.8821 77.4802 78.7153 79.8922C80.573 82.2999 82.1838 85.4321 82.7721 88.5814C82.9998 89.8166 83.1009 91.4189 83.1009 93.1702C83.1041 100.217 81.4922 109.542 81.4943 109.559L83.5658 109.921V109.918C83.5669 109.89 85.1969 100.501 85.2022 93.1702C85.2011 91.3381 85.1022 89.6336 84.8372 88.1952C84.1584 84.6225 82.4083 81.2444 80.3793 78.6101Z" fill="#57585A"/>
<path d="M80.3124 108.971C76.1354 108.971 72.751 112.356 72.751 116.533C72.751 120.708 76.1354 124.094 80.3124 124.094C84.4863 124.094 87.8728 120.708 87.8728 116.533C87.8728 112.356 84.4863 108.971 80.3124 108.971Z" fill="#929597"/>
<path d="M80.3121 112.893C78.3023 112.893 76.667 114.521 76.667 116.533C76.667 118.542 78.3023 120.175 80.3121 120.175C82.3197 120.175 83.9508 118.542 83.9508 116.533C83.9508 114.521 82.3197 112.893 80.3121 112.893Z" fill="#D0D2D3"/>
<path d="M24.3093 42.145C21.2083 43.0466 21.9249 47.7016 21.9225 49.4321C21.9202 51.1672 24.5148 57.3004 26.253 57.9731C30.6569 59.6812 30.6589 53.2621 30.6589 53.2621V45.7927C30.6589 45.7927 27.4078 41.2461 24.3093 42.145Z" fill="#FFBA7F"/>
<path d="M89.5438 39.3853C86.4423 38.4859 83.1904 43.0238 83.1904 43.0238V50.497C83.1904 50.497 83.1839 57.1156 87.5901 55.2123C89.2991 54.4717 91.9253 48.405 91.9281 46.6726C91.9281 44.9402 92.6435 40.2865 89.5438 39.3853Z" fill="#FFBA7F"/>
<path d="M63.7145 9.41113L48.3102 9.40774C37.1282 9.40209 28.0633 21.2236 28.0559 35.8084L28.0508 55.9018C28.0447 70.4877 43.247 80.7136 48.2874 82.3191C53.5923 84.0075 58.786 83.7687 63.6927 82.3236C68.9901 80.7609 83.9421 70.507 83.9488 55.9221L83.9545 35.8276C83.9567 21.2417 74.8963 9.41339 63.7145 9.41113Z" fill="#FFBA7F"/>
<path d="M78.8341 69.7594C78.875 69.6906 78.9274 69.6289 78.9678 69.5601C78.7457 69.7221 78.5126 69.8678 78.2861 70.025C78.4718 69.942 78.6516 69.846 78.8341 69.7594Z" fill="#E2A980"/>
<path d="M60.2126 80.9046C50.7433 80.869 40.1386 73.1618 36.2872 65.6087C32.4349 58.056 32.4958 25.1663 32.4958 24.5295C32.4958 19.1093 34.0038 13.4905 37.3916 8.90375C37.7464 7.91526 38.1563 6.94231 38.6345 6C31.069 10.8914 28.0001 19.2234 28.0001 27.0816C28.0001 27.7166 27.9388 60.6085 31.7915 68.1612C35.6433 75.7121 46.2472 83.4202 55.7173 83.4557C61.0887 83.4775 66.1435 81.6555 70.4039 78.7251C67.2381 80.1181 63.7909 80.9197 60.2126 80.9046Z" fill="#E2A980"/>
<path d="M28.0511 47.2328C30.1228 45.565 35.2813 17.4725 35.545 15.9889L26.7127 18.8048C26.7127 18.8048 26.249 48.687 28.0511 47.2328Z" fill="#3B2314"/>
<path d="M77.3672 17.7594C77.3672 17.7594 82.5956 46.4766 84.2208 47.844C85.8428 49.2094 85.4438 22.1627 85.4438 22.1627L77.3672 17.7594Z" fill="#3B2314"/>
<path d="M63.892 1.45145C51.092 -1.50546 43.9911 3.44387 43.9911 3.44387C43.9911 3.44387 42.1115 1.93729 43.5625 -8.0491e-05C40.0139 0.485758 39.0444 4.14152 37.9139 6.93928C34.3658 5.80845 31.5161 7.31502 31.5161 7.31502C31.5161 7.31502 34.3658 9.51805 31.3016 12.0466C22.6964 19.1487 26.7834 27.4283 26.7834 27.4283C26.7834 27.4283 29.9524 35.313 31.4616 33.7214C37.1082 27.7502 41.5463 24.6042 42.5158 20.0868C42.5158 20.0868 48.518 27.8626 56.6055 29.6863C63.2725 31.1929 71.5276 32.4853 75.0243 31.7853C72.0105 28.7721 71.1513 23.0713 71.1513 23.0713C71.1513 23.0713 80.7311 40.6237 85.3478 27.5886C90.2456 13.7685 73.0462 3.56951 63.892 1.45145Z" fill="#3B2314"/>
</svg>
