<svg width="44" height="41" viewBox="0 0 44 41" fill="none" xmlns="http://www.w3.org/2000/svg">
<path d="M20.3956 1.29298C19.982 1.64132 19.7207 2.05496 19.7207 2.38152C19.7207 3.18705 20.3085 3.27413 21.027 2.57746C21.7019 1.92434 22.3332 1.96788 22.3332 2.64277C22.3332 2.86048 22.0502 3.31767 21.6801 3.666C21.114 4.21028 21.027 4.44976 21.027 5.42944C21.027 6.38736 21.0923 6.60507 21.4624 6.71392C22.1155 6.90986 22.3332 6.67038 22.3332 5.73424C22.3332 5.10288 22.4856 4.75455 22.9863 4.25382C24.9022 2.33798 22.4421 -0.448687 20.3956 1.29298Z" fill="#00C4D8" stroke="#00C4D8" stroke-width="0.5"/>
<path d="M10.1207 7.80104C9.48935 8.14937 9.01039 9.04197 9.18456 9.5427C9.35873 9.99989 10.0554 9.95635 10.4037 9.47739C10.8391 8.86781 11.2092 8.71541 11.5576 8.99843C12.0148 9.36854 11.9712 9.5427 11.1875 10.4353C10.5997 11.1102 10.4908 11.3932 10.5344 12.1987C10.5779 13.3526 10.6867 13.5703 11.231 13.5703C11.6882 13.5703 11.8841 13.1567 11.8841 12.1552C11.8841 11.7416 12.0148 11.3279 12.1672 11.2408C12.8203 10.849 13.2339 9.89104 13.1033 9.10729C12.8421 7.73572 11.4052 7.10437 10.1207 7.80104Z" fill="#00C4D8" stroke="#00C4D8" stroke-width="0.5"/>
<path d="M31.2618 7.79907C30.195 8.36512 29.8249 9.8673 30.7393 9.8673C30.9352 9.8673 31.3271 9.60605 31.6319 9.30126C32.2197 8.66991 32.6551 8.71345 32.7422 9.43189C32.8075 9.75845 32.6333 10.1068 32.2632 10.4551C31.6319 11.0212 31.4142 11.6961 31.523 12.5887C31.6754 13.982 33.0035 13.7425 33.0035 12.3274C33.0035 11.7831 33.1994 11.326 33.6566 10.8035C34.3968 9.97616 34.4621 9.47543 33.9831 8.53928C33.4606 7.53782 32.3068 7.21126 31.2618 7.79907Z" fill="#00C4D8" stroke="#00C4D8" stroke-width="0.5"/>
<path d="M21.5793 8.72963L21.5643 8.74031L21.5486 8.74986C21.5432 8.75319 21.5389 8.75618 21.5355 8.75871C21.5471 8.78016 21.5857 8.82422 21.6805 8.82422C21.7355 8.82422 21.7737 8.81916 21.7983 8.81356C21.7979 8.80791 21.7965 8.79827 21.7924 8.7845C21.7841 8.75678 21.7678 8.72377 21.7439 8.69259C21.7304 8.67506 21.7168 8.66108 21.7045 8.65041C21.6657 8.67195 21.6216 8.6994 21.5793 8.72963Z" fill="#00C4D8" stroke="#00C4D8"/>
<path d="M19.6128 12.0247C18.546 12.5254 17.4575 13.6358 17.0221 14.7025C16.5866 15.7258 16.5866 17.7069 17.0003 18.7084C17.1745 19.1438 17.2615 19.601 17.1745 19.7534C17.0874 19.884 16.4778 20.8637 15.8247 21.9522C14.6708 23.8245 14.6055 23.8898 14.4966 23.2585C14.4096 22.736 14.2789 22.6054 13.8435 22.6054C13.2992 22.6054 13.2992 22.6271 13.2339 24.6954C13.1904 26.3717 13.2339 26.8507 13.517 27.0684C14.0177 27.482 14.2789 27.1772 16.5866 23.3456C17.7187 21.4515 18.742 19.8405 18.8508 19.7751C19.1991 19.5574 19.9394 20.0799 19.9394 20.5371C19.9394 20.7766 18.5025 23.2802 16.739 26.0887L13.5605 31.2048H12.3849H11.231V26.7854C11.231 22.6271 11.2746 22.3441 11.7317 21.5168C12.2978 20.5154 13.6911 19.4703 14.7361 19.2526C15.3892 19.122 15.4763 19.0132 15.4328 18.4907C15.411 18.1423 15.3457 17.8375 15.3022 17.794C15.2586 17.7505 14.7361 17.8593 14.1265 18.0335C12.6244 18.4689 11.231 19.601 10.469 20.9943L9.81591 22.1699L9.7506 26.6765L9.66351 31.1831L5.20049 31.2484C0.824548 31.3137 0.737465 31.3137 0.323819 31.8362C-0.285765 32.5982 -0.242224 34.2528 0.410902 34.8623C0.846319 35.276 1.17288 35.3413 2.63153 35.3413H4.3732L2.10903 37.6055C-0.15514 39.8696 -0.525245 40.5881 0.454444 40.7405C0.759236 40.784 1.69538 40.0003 3.61122 38.0627L6.33257 35.3413H21.681H37.0295L39.7508 38.0627C41.6667 40.0003 42.6028 40.784 42.9076 40.7405C43.8873 40.5881 43.5172 39.8696 41.253 37.6055L38.9889 35.3413H40.7523C42.298 35.3413 42.5593 35.276 42.9729 34.8406C43.6043 34.1657 43.626 32.5546 43.0382 31.8362C42.6246 31.3137 42.5375 31.3137 38.1398 31.2484L33.655 31.1831V27.5038C33.655 23.1932 33.4591 22.0393 32.4576 20.6242C31.2384 18.9261 28.4735 17.3803 27.9728 18.1641C27.6027 18.7519 27.7551 19.1656 28.3864 19.2962C29.4314 19.5139 31.086 20.7984 31.6303 21.8216C32.1093 22.736 32.131 23.019 32.131 27.0031V31.2048H30.9772H29.8016L26.623 26.0887C24.8596 23.2802 23.4227 20.7766 23.4227 20.5371C23.4227 20.3194 23.6404 19.9928 23.9017 19.8622C24.5112 19.5357 24.5548 19.5792 27.0367 23.7592C28.1034 25.5662 29.1049 27.1119 29.2791 27.1772C29.9757 27.4603 30.1934 26.8507 30.1281 24.6954C30.0628 22.6271 30.0628 22.6054 29.5185 22.6054C29.0831 22.6054 28.9525 22.736 28.8654 23.2585C28.7566 23.8898 28.6912 23.8245 27.5374 21.9522C26.8843 20.8637 26.2529 19.884 26.1658 19.7316C26.1005 19.5792 26.1658 19.1002 26.3618 18.6648C26.8189 17.5763 26.7754 15.6169 26.2747 14.5501C25.7739 13.4834 24.6636 12.3948 23.5969 11.9594C22.5083 11.5022 20.6796 11.524 19.6128 12.0247ZM23.7275 13.5922C25.1208 14.5501 25.7522 16.466 25.1861 17.9899C25.0337 18.4036 24.8596 18.4907 24.3588 18.4253C23.5751 18.3165 22.3777 19.0567 22.2035 19.7751C22.1164 20.1017 21.9205 20.3194 21.681 20.3194C21.4415 20.3194 21.2456 20.1017 21.1585 19.7751C20.9844 19.0567 19.787 18.3165 19.0032 18.4253C18.263 18.5124 17.98 17.9899 17.98 16.5748C17.98 13.7228 21.3762 11.9594 23.7275 13.5922ZM25.295 26.5241L28.147 31.096L24.9249 31.1613C23.1397 31.1831 20.2224 31.1831 18.4589 31.1613L15.2151 31.096L17.1962 27.9392C21.4198 21.1902 20.9408 21.7998 21.7246 21.8869C22.3777 21.9522 22.6172 22.2352 25.295 26.5241ZM42.1456 33.3819V34.0351H21.681H1.21642V33.3819V32.7288H21.681H42.1456V33.3819Z" fill="#00C4D8" stroke="#00C4D8" stroke-width="0.5"/>
<path d="M10.7087 15.228C10.3385 15.5981 10.4474 16.0989 10.9699 16.2948C11.4053 16.469 11.9496 15.9247 11.7754 15.4893C11.5795 14.9668 11.0788 14.8579 10.7087 15.228Z" fill="#00C4D8" stroke="#00C4D8" stroke-width="0.5"/>
<path d="M31.7614 15.2024C31.4566 15.4418 31.4131 15.5942 31.609 15.8772C31.9356 16.4215 32.2404 16.4651 32.6322 16.0732C33.2854 15.4201 32.5234 14.6581 31.7614 15.2024Z" fill="#00C4D8" stroke="#00C4D8" stroke-width="0.5"/>
</svg>
