<svg width="57" height="56" viewBox="0 0 57 56" fill="none" xmlns="http://www.w3.org/2000/svg">
<path opacity="0.8" d="M19.5805 0.808674C19.9691 0.821282 20.3427 0.972036 20.6418 1.23697C20.9408 1.5019 21.1482 1.86581 21.231 2.27084L30.3088 46.3589L39.9515 14.4886C40.0665 14.1068 40.2941 13.7749 40.6005 13.5424C40.9069 13.3099 41.2756 13.1892 41.6516 13.1984C42.0276 13.2076 42.3908 13.3462 42.6868 13.5935C42.9829 13.8407 43.196 14.1834 43.2944 14.5704L46.4304 26.8303H54.9782C55.4406 26.8303 55.884 27.0261 56.211 27.3747C56.538 27.7232 56.7217 28.196 56.7217 28.689C56.7217 29.1819 56.538 29.6547 56.211 30.0032C55.884 30.3518 55.4406 30.5476 54.9782 30.5476H45.0983C44.7156 30.5478 44.3434 30.4137 44.0393 30.1661C43.7351 29.9184 43.5158 29.5709 43.4153 29.1772L41.4719 21.5764L31.6478 54.0414C31.5306 54.4309 31.2961 54.7682 30.9807 55.0011C30.6654 55.234 30.2867 55.3496 29.9035 55.3298C29.5203 55.31 29.1539 55.1561 28.8611 54.8918C28.5683 54.6275 28.3655 54.2676 28.284 53.868L19.3062 10.2632L14.2268 29.1995C14.1228 29.5874 13.9033 29.9287 13.6014 30.1719C13.2994 30.4152 12.9315 30.547 12.553 30.5476H2.67319C2.21078 30.5476 1.76732 30.3518 1.44035 30.0032C1.11338 29.6547 0.929688 29.1819 0.929688 28.689C0.929688 28.196 1.11338 27.7232 1.44035 27.3747C1.76732 27.0261 2.21078 26.8303 2.67319 26.8303H11.2373L17.8533 2.15684C17.9596 1.75939 18.1871 1.41105 18.4999 1.16689C18.8127 0.922733 19.193 0.796686 19.5805 0.808674Z" fill="white"/>
</svg>
