<svg width="48" height="55" viewBox="0 0 48 55" fill="none" xmlns="http://www.w3.org/2000/svg">
<path opacity="0.8" d="M19.2988 5.33556C18.3936 9.43334 18.2706 13.6816 18.937 17.8305C19.6034 21.9794 21.0458 25.9452 23.1792 29.4945C25.3127 33.0438 28.0941 36.1051 31.36 38.4981C34.6259 40.8912 38.3103 42.5678 42.1964 43.4292C40.1531 45.6704 37.7059 47.4535 35.0001 48.6728C32.2943 49.892 29.3849 50.5226 26.4448 50.5271C26.1722 50.5271 25.8957 50.5375 25.6192 50.5271C20.5004 50.3359 15.6065 48.2499 11.7878 44.6315C7.96902 41.013 5.4667 36.0908 4.71554 30.7199C3.96438 25.349 5.01185 19.8689 7.67597 15.2316C10.3401 10.5943 14.4525 7.09286 19.2988 5.33556ZM22.216 0.28125C22.1001 0.281664 21.9845 0.292874 21.8704 0.31475C15.5828 1.50091 9.93146 5.11087 6.0044 10.4496C2.07735 15.7883 0.152251 22.4784 0.59975 29.2317C1.04725 35.985 3.83571 42.324 8.42825 47.0284C13.0208 51.7327 19.0927 54.4697 25.475 54.7125C25.7989 54.725 26.1228 54.7125 26.4428 54.7125C30.5885 54.7153 34.6738 53.6599 38.3534 51.6355C42.033 49.611 45.1986 46.677 47.5825 43.0817C47.7757 42.7718 47.8884 42.4135 47.9094 42.0427C47.9304 41.672 47.859 41.3019 47.7022 40.9698C47.5454 40.6376 47.3089 40.3551 47.0164 40.1506C46.7239 39.9461 46.3858 39.8269 46.036 39.805C42.0902 39.4379 38.2769 38.1139 34.8908 35.9354C31.5047 33.7569 28.6364 30.7822 26.5078 27.2412C24.3791 23.7002 23.0471 19.6878 22.6146 15.514C22.182 11.3403 22.6606 7.11702 24.0134 3.17063C24.1285 2.85474 24.1707 2.51428 24.1365 2.17761C24.1023 1.84093 23.9927 1.51779 23.8169 1.2351C23.641 0.952406 23.404 0.718352 23.1255 0.552435C22.8471 0.386518 22.5353 0.293541 22.216 0.28125Z" fill="white"/>
</svg>
