<svg width="61" height="64" viewBox="0 0 61 64" fill="none" xmlns="http://www.w3.org/2000/svg">
<path opacity="0.3" d="M60.8329 32C60.8329 49.6731 47.3178 64 30.646 64C13.9742 64 0.458984 49.6731 0.458984 32C0.458984 14.3269 13.9742 0 30.646 0C47.3178 0 60.8329 14.3269 60.8329 32ZM9.67412 32C9.67412 44.2781 19.0635 54.2314 30.646 54.2314C42.2284 54.2314 51.6178 44.2781 51.6178 32C51.6178 19.7219 42.2284 9.7686 30.646 9.7686C19.0635 9.7686 9.67412 19.7219 9.67412 32Z" fill="#F5F1FF"/>
<path d="M48.5284 50.9564C50.4074 52.9483 53.6074 52.9603 55.1457 50.6949C57.6578 46.9953 59.4067 42.7525 60.2529 38.2429C61.4177 32.0355 60.8199 25.6014 58.5351 19.7541C56.2503 13.9069 52.3812 8.90918 47.4169 5.39297C43.8184 2.84409 39.7616 1.15669 35.5276 0.421173C32.8582 -0.0425483 30.646 2.19638 30.646 4.90575C30.646 7.61511 32.8749 9.7527 35.5017 10.4168C37.9044 11.0242 40.1995 12.081 42.2748 13.5509C45.7169 15.989 48.3998 19.4544 49.984 23.5088C51.5683 27.5632 51.9828 32.0246 51.1751 36.3288C50.6509 39.1225 49.627 41.7686 48.1725 44.1303C46.8502 46.2773 46.7981 49.1222 48.5284 50.9564Z" fill="#713DF0"/>
</svg>
