<svg width="47" height="40" viewBox="0 0 47 40" fill="none" xmlns="http://www.w3.org/2000/svg">
<path d="M11.5789 21.6673H3.30827C2.86957 21.6673 2.44883 21.4917 2.13862 21.1791C1.82841 20.8665 1.65414 20.4426 1.65414 20.0006C1.65414 19.5585 1.82841 19.1346 2.13862 18.822C2.44883 18.5094 2.86957 18.3338 3.30827 18.3338H10.694L13.5101 14.0754C13.6611 13.8468 13.8659 13.6593 14.1061 13.5296C14.3464 13.3999 14.6147 13.3321 14.8872 13.3321C15.1598 13.3321 15.4281 13.3999 15.6683 13.5296C15.9086 13.6593 16.1133 13.8468 16.2643 14.0754L21.5038 21.9923L23.435 19.0755C23.5861 18.8472 23.7909 18.66 24.0312 18.5307C24.2714 18.4013 24.5396 18.3337 24.812 18.3338H29.7744C30.2131 18.3338 30.6339 18.5094 30.9441 18.822C31.2543 19.1346 31.4286 19.5585 31.4286 20.0006C31.4286 20.4426 31.2543 20.8665 30.9441 21.1791C30.6339 21.4917 30.2131 21.6673 29.7744 21.6673H25.697L22.8808 25.9257C22.7298 26.1543 22.5251 26.3418 22.2849 26.4715C22.0446 26.6012 21.7763 26.669 21.5038 26.669C21.2312 26.669 20.9629 26.6012 20.7227 26.4715C20.4824 26.3418 20.2777 26.1543 20.1267 25.9257L14.8872 18.0047L12.956 20.9214C12.8053 21.1505 12.6007 21.3385 12.3605 21.4686C12.1202 21.5987 11.8517 21.667 11.5789 21.6673ZM33.4962 0C29.2265 0 25.4882 1.85005 23.1579 4.97722C20.8276 1.85005 17.0893 0 12.8195 0C9.42077 0.00385998 6.16229 1.366 3.75899 3.78757C1.35569 6.20915 0.00383085 9.4924 0 12.917V13.3858C0.0137095 13.8278 0.201132 14.2463 0.521037 14.5491C0.840941 14.8519 1.26712 15.0142 1.70583 15.0004C2.14453 14.9866 2.55982 14.7978 2.86034 14.4754C3.16085 14.1531 3.32198 13.7237 3.30827 13.2816V12.917C3.31155 10.3763 4.31469 7.94061 6.09769 6.14405C7.88069 4.34749 10.298 3.33673 12.8195 3.33343C16.8412 3.33343 20.2177 5.49182 21.6278 8.95858C21.7524 9.26427 21.9644 9.52574 22.2369 9.70974C22.5093 9.89375 22.8299 9.992 23.1579 9.992C23.4859 9.992 23.8065 9.89375 24.0789 9.70974C24.3513 9.52574 24.5633 9.26427 24.688 8.95858C26.0981 5.48557 29.4746 3.33343 33.4962 3.33343C36.0178 3.33673 38.4351 4.34749 40.2181 6.14405C42.0011 7.94061 43.0042 10.3763 43.0075 12.917C43.0075 24.0861 26.9293 34.1989 23.1579 36.4177C20.9186 35.103 14.3434 31.0009 9.37068 25.5403C9.22378 25.3789 9.04677 25.2482 8.84974 25.1557C8.65272 25.0632 8.43955 25.0107 8.22239 25.0012C8.00524 24.9918 7.78836 25.0255 7.58414 25.1004C7.37991 25.1754 7.19235 25.2902 7.03214 25.4382C6.87194 25.5862 6.74224 25.7646 6.65045 25.9631C6.55865 26.1616 6.50657 26.3764 6.49716 26.5952C6.48775 26.814 6.52121 27.0325 6.59561 27.2383C6.67002 27.4441 6.78393 27.6331 6.93083 27.7945C13.3758 34.878 22.0103 39.6032 22.3742 39.8011C22.6151 39.9317 22.8844 40 23.1579 40C23.4314 40 23.7007 39.9317 23.9415 39.8011C24.8554 39.3052 46.3158 27.5008 46.3158 12.917C46.312 9.4924 44.9601 6.20915 42.5568 3.78757C40.1535 1.366 36.895 0.00385998 33.4962 0Z" fill="#00C4D8"/>
</svg>
