<svg width="25" height="25" viewBox="0 0 25 25" fill="none" xmlns="http://www.w3.org/2000/svg">
<circle cx="12.5" cy="12.5" r="12.5" fill="#6DD3AE"/>
<g clip-path="url(#clip0_78_1951)">
<path d="M12.915 12.8126C14.6621 12.8126 16.251 13.3186 17.4198 14.0317C18.0032 14.3876 18.5019 14.8076 18.8621 15.264C19.2165 15.7125 19.4775 16.2491 19.4775 16.823C19.4775 17.4391 19.1778 17.9248 18.7462 18.2711C18.3378 18.5992 17.799 18.8165 17.2266 18.9682C16.076 19.2723 14.5403 19.3751 12.915 19.3751C11.2897 19.3751 9.7541 19.273 8.60348 18.9682C8.03108 18.8165 7.49223 18.5992 7.08389 18.2711C6.6515 17.924 6.35254 17.4391 6.35254 16.823C6.35254 16.2491 6.61358 15.7125 6.96796 15.2633C7.32816 14.8076 7.82618 14.3883 8.41025 14.031C9.5791 13.3194 11.1687 12.8126 12.915 12.8126ZM12.915 4.79175C13.882 4.79175 14.8093 5.17586 15.493 5.85959C16.1768 6.54331 16.5609 7.47065 16.5609 8.43758C16.5609 9.40452 16.1768 10.3318 15.493 11.0156C14.8093 11.6993 13.882 12.0834 12.915 12.0834C11.9481 12.0834 11.0208 11.6993 10.337 11.0156C9.65332 10.3318 9.26921 9.40452 9.26921 8.43758C9.26921 7.47065 9.65332 6.54331 10.337 5.85959C11.0208 5.17586 11.9481 4.79175 12.915 4.79175Z" fill="white"/>
</g>
<defs>
<clipPath id="clip0_78_1951">
<rect width="17.5" height="17.5" fill="white" transform="translate(4.16504 3.3335)"/>
</clipPath>
</defs>
</svg>
