<svg width="14" height="14" viewBox="0 0 14 14" fill="none" xmlns="http://www.w3.org/2000/svg">
<path d="M13 7.36353C13 8.95482 12.3679 10.4809 11.2426 11.6062C10.1174 12.7314 8.5913 13.3635 7 13.3635C5.4087 13.3635 3.88258 12.7314 2.75736 11.6062C1.63214 10.4809 1 8.95482 1 7.36353M13 7.36353C13 5.77223 12.3679 4.2461 11.2426 3.12088C10.1174 1.99567 8.5913 1.36353 7 1.36353C5.4087 1.36353 3.88258 1.99567 2.75736 3.12088C1.63214 4.2461 1 5.77223 1 7.36353M13 7.36353H1" stroke="#04C1D6" stroke-linecap="round" stroke-linejoin="round"/>
<path d="M9.30768 7.36353C9.19432 9.55767 8.38615 11.6589 6.99998 13.3635C5.61382 11.6589 4.80564 9.55767 4.69229 7.36353C4.80564 5.16938 5.61382 3.06813 6.99998 1.36353C8.38615 3.06813 9.19432 5.16938 9.30768 7.36353Z" stroke="#04C1D6" stroke-linecap="round" stroke-linejoin="round"/>
</svg>
