<svg width="54" height="55" viewBox="0 0 54 55" fill="none" xmlns="http://www.w3.org/2000/svg">
<path d="M48.25 2.22096H5.75C4.75544 2.22096 3.80161 2.61605 3.09835 3.31931C2.39509 4.02257 2 4.9764 2 5.97096V48.471C2 49.4655 2.39509 50.4193 3.09835 51.1226C3.80161 51.8259 4.75544 52.221 5.75 52.221H48.25C49.2446 52.221 50.1984 51.8259 50.9016 51.1226C51.6049 50.4193 52 49.4655 52 48.471V5.97096C52 4.9764 51.6049 4.02257 50.9016 3.31931C50.1984 2.61605 49.2446 2.22096 48.25 2.22096Z" stroke="#AF8EFF" stroke-width="4" stroke-linejoin="round"/>
<path d="M12 21.0385C16.1563 16.0385 21.1562 13.5385 27 13.5385C32.8438 13.5385 37.8437 16.0385 42 21.0385" stroke="#AF8EFF" stroke-width="4" stroke-linecap="round"/>
<path d="M27 35.971C27.9946 35.971 28.9484 35.5759 29.6517 34.8726C30.3549 34.1694 30.75 33.2155 30.75 32.221C30.75 31.2264 30.3549 30.2726 29.6517 29.5693C28.9484 28.8661 27.9946 28.471 27 28.471C26.0054 28.471 25.0516 28.8661 24.3483 29.5693C23.6451 30.2726 23.25 31.2264 23.25 32.221C23.25 33.2155 23.6451 34.1694 24.3483 34.8726C25.0516 35.5759 26.0054 35.971 27 35.971Z" fill="#AF8EFF"/>
<path d="M20.75 23.471L27.01 32.221" stroke="#AF8EFF" stroke-width="4" stroke-linecap="round"/>
</svg>
