<svg width="46" height="34" viewBox="0 0 46 34" fill="none" xmlns="http://www.w3.org/2000/svg">
<path d="M27.4245 17.0007L20.1328 21.1673V12.834L27.4245 17.0007Z" fill="black" stroke="black" stroke-width="3" stroke-linecap="round" stroke-linejoin="round"/>
<path d="M2.4248 18.4757V15.5257C2.4248 9.4944 2.4248 6.47773 4.31022 4.53815C6.19772 2.59648 9.16856 2.51315 15.1081 2.3444C17.9206 2.26523 20.7956 2.20898 23.2581 2.20898C25.7206 2.20898 28.5936 2.26523 31.4081 2.3444C37.3477 2.51315 40.3186 2.59648 42.204 4.53815C44.0894 6.47982 44.0915 9.49648 44.0915 15.5257V18.4736C44.0915 24.5069 44.0915 27.5215 42.2061 29.4632C40.3186 31.4027 37.3498 31.4882 31.4081 31.6548C28.5956 31.7361 25.7206 31.7923 23.2581 31.7923C20.7956 31.7923 17.9227 31.7361 15.1081 31.6548C9.16856 31.4882 6.19772 31.4048 4.31022 29.4632C2.42272 27.5215 2.4248 24.5048 2.4248 18.4757Z" stroke="black" stroke-width="3"/>
</svg>
